<svg id="svg" version="1.1" width="400" height="400" viewBox="0 0 400 400" xmlns="http://www.w3.org/2000/svg" xmlns:xlink="http://www.w3.org/1999/xlink" ><g id="svgg"><path id="path0" d="M0.000 7.640 L 0.000 15.281 1.734 15.140 C 2.780 15.056,3.467 15.169,3.467 15.426 C 3.467 15.660,2.737 15.895,1.845 15.947 C -0.958 16.113,-0.267 16.400,2.933 16.400 L 6.000 16.400 6.000 8.200 L 6.000 0.000 3.000 0.000 L 0.000 0.000 0.000 7.640 M362.800 8.200 L 362.800 16.400 364.624 16.400 C 365.627 16.400,366.355 16.250,366.241 16.067 C 366.128 15.883,366.289 15.733,366.600 15.733 C 366.911 15.733,367.072 15.883,366.959 16.067 C 366.845 16.250,367.393 16.400,368.176 16.400 C 369.778 16.400,370.492 14.016,368.900 13.987 C 368.233 13.975,368.233 13.949,368.900 13.443 C 369.516 12.976,369.600 12.135,369.600 6.456 L 369.600 0.000 366.200 0.000 L 362.800 0.000 362.800 8.200 M0.000 31.400 L 0.000 42.835 2.900 42.718 L 5.800 42.600 5.800 31.400 L 5.800 20.200 2.900 20.082 L 0.000 19.965 0.000 31.400 M362.987 20.489 C 362.877 20.777,362.835 25.869,362.893 31.806 L 363.000 42.600 366.306 42.716 L 369.613 42.833 369.506 31.516 L 369.400 20.200 366.294 20.083 C 364.019 19.997,363.134 20.106,362.987 20.489 M0.000 57.400 L 0.000 68.835 2.900 68.718 L 5.800 68.600 5.800 57.400 L 5.800 46.200 2.900 46.082 L 0.000 45.965 0.000 57.400 M362.987 46.489 C 362.877 46.777,362.835 51.869,362.893 57.806 L 363.000 68.600 366.200 68.600 L 369.400 68.600 369.400 57.400 L 369.400 46.200 366.294 46.083 C 364.019 45.997,363.134 46.106,362.987 46.489 M0.000 83.618 L 0.000 94.835 2.900 94.718 L 5.800 94.600 5.906 83.500 L 6.013 72.400 3.006 72.400 L 0.000 72.400 0.000 83.618 M362.894 83.501 L 363.000 94.600 366.300 94.716 L 369.600 94.832 369.600 84.416 C 369.600 77.739,369.456 74.000,369.200 74.000 C 368.980 74.000,368.800 74.210,368.800 74.467 C 368.800 74.723,368.665 74.799,368.501 74.634 C 368.336 74.469,368.561 74.059,369.001 73.721 C 369.769 73.131,369.756 73.115,368.670 73.304 C 367.423 73.521,367.721 72.981,369.000 72.705 C 369.440 72.610,368.222 72.503,366.294 72.467 L 362.787 72.402 362.894 83.501 M0.000 109.618 L 0.000 120.835 2.900 120.718 L 5.800 120.600 5.906 109.500 L 6.013 98.400 3.006 98.400 L 0.000 98.400 0.000 109.618 M362.800 109.620 L 362.800 120.800 366.200 120.800 L 369.600 120.800 369.600 109.620 L 369.600 98.440 366.200 98.440 L 362.800 98.440 362.800 109.620 M166.937 103.907 C 166.682 104.069,166.347 104.876,166.192 105.701 C 166.038 106.525,165.680 107.200,165.398 107.200 C 164.704 107.200,164.400 108.122,164.400 110.233 C 164.400 111.733,164.521 112.000,165.200 112.000 C 165.949 112.000,166.000 112.267,166.000 116.174 C 166.000 122.589,165.721 122.303,171.983 122.303 C 178.344 122.303,178.369 122.285,178.460 117.411 C 178.493 115.645,178.596 114.706,178.689 115.324 C 178.782 115.942,179.115 116.546,179.429 116.666 C 179.743 116.787,180.002 117.361,180.005 117.943 C 180.015 119.786,180.456 120.800,181.247 120.800 C 181.661 120.800,182.000 121.067,182.000 121.392 C 182.000 122.150,183.655 122.592,186.200 122.515 C 187.300 122.481,190.178 122.397,192.595 122.327 L 196.990 122.200 197.248 121.000 C 197.389 120.340,197.527 120.025,197.553 120.300 C 197.663 121.465,199.199 122.400,201.000 122.400 C 202.267 122.400,203.037 122.163,203.600 121.600 C 204.545 120.655,204.800 120.603,204.800 121.357 C 204.800 122.734,208.532 122.801,210.100 121.453 C 211.563 120.195,211.826 111.026,210.439 109.639 C 210.021 109.221,209.559 108.501,209.413 108.039 C 209.116 107.106,193.712 106.721,191.426 107.590 C 190.759 107.844,190.400 107.844,190.400 107.590 C 190.400 106.978,182.113 107.085,181.865 107.700 C 181.704 108.100,181.657 108.100,181.632 107.700 C 181.610 107.352,180.770 107.200,178.869 107.200 L 176.139 107.200 176.324 105.935 C 176.608 104.002,175.725 103.599,171.224 103.606 C 169.121 103.609,167.192 103.745,166.937 103.907 M172.104 104.805 C 172.521 105.272,172.494 105.282,171.939 104.864 C 171.413 104.468,171.244 104.468,171.112 104.863 C 170.999 105.203,170.869 105.157,170.701 104.719 C 170.399 103.933,171.381 103.993,172.104 104.805 M83.919 105.472 C 83.544 105.571,83.127 106.000,82.992 106.426 C 82.857 106.852,82.506 107.200,82.212 107.200 C 81.022 107.200,80.258 114.825,81.140 117.911 C 81.743 120.023,84.691 122.309,87.186 122.598 C 90.604 122.995,94.053 122.486,94.298 121.548 C 94.405 121.136,94.631 120.800,94.800 120.800 C 94.969 120.800,95.195 121.136,95.302 121.548 C 95.732 123.189,102.048 123.077,104.071 121.392 C 105.347 120.329,107.200 120.465,107.200 121.622 C 107.200 123.361,116.888 122.994,117.135 121.245 C 117.209 120.720,117.029 120.138,116.735 119.951 C 116.336 119.698,116.327 119.611,116.700 119.606 C 117.073 119.602,117.200 118.330,117.200 114.600 C 117.200 111.533,117.045 109.600,116.800 109.600 C 116.580 109.600,116.400 109.780,116.400 110.000 C 116.400 110.220,115.939 110.400,115.376 110.400 C 114.778 110.400,114.458 110.229,114.607 109.989 C 114.746 109.764,115.072 109.612,115.330 109.652 C 116.298 109.804,117.200 109.083,117.200 108.157 C 117.200 107.254,117.065 107.200,114.800 107.200 L 112.400 107.200 112.400 111.353 C 112.400 115.466,112.390 115.509,111.400 115.698 L 110.400 115.889 110.400 111.545 L 110.400 107.200 108.027 107.200 C 106.026 107.200,105.615 107.322,105.406 107.980 C 105.161 108.752,105.152 108.752,104.380 107.980 C 103.727 107.327,103.036 107.200,100.146 107.200 C 96.975 107.200,96.616 107.118,95.765 106.200 C 94.868 105.232,86.730 104.732,83.919 105.472 M117.600 116.619 L 117.600 126.038 120.100 125.919 L 122.600 125.800 122.722 124.343 C 122.842 122.896,122.856 122.885,125.068 122.609 C 126.785 122.394,127.339 122.156,127.493 121.565 C 127.761 120.540,129.646 120.541,130.286 121.566 C 131.317 123.218,138.587 123.000,139.568 121.288 C 139.930 120.658,140.017 120.676,140.604 121.500 C 141.508 122.769,144.190 122.751,145.683 121.467 C 146.686 120.605,146.777 120.270,146.901 116.968 L 147.035 113.400 147.118 117.451 C 147.214 122.195,147.395 122.462,150.467 122.402 C 151.640 122.378,153.354 122.481,154.275 122.629 C 156.960 123.061,160.453 122.482,160.693 121.565 C 160.803 121.144,161.213 120.800,161.604 120.800 C 162.817 120.800,163.427 115.187,162.333 114.093 C 161.977 113.737,161.979 113.246,162.344 112.028 C 162.823 110.431,162.638 108.642,161.896 107.700 C 161.112 106.705,152.837 107.029,152.452 108.071 L 152.130 108.941 151.903 108.071 C 151.539 106.682,140.411 106.710,140.379 108.100 L 140.358 109.000 139.730 108.100 C 138.815 106.788,130.212 106.701,129.800 108.000 C 129.660 108.440,129.210 108.800,128.800 108.800 C 128.390 108.800,127.940 108.440,127.800 108.000 C 127.564 107.257,127.195 107.200,122.573 107.200 L 117.600 107.200 117.600 116.619 M84.400 108.333 C 84.400 108.854,83.924 109.201,83.538 108.961 C 83.124 108.706,83.481 108.000,84.024 108.000 C 84.231 108.000,84.400 108.150,84.400 108.333 M108.000 109.624 C 108.000 109.831,107.736 110.000,107.413 110.000 C 107.056 110.000,106.915 109.765,107.054 109.402 C 107.291 108.787,108.000 108.953,108.000 109.624 M183.587 110.024 C 182.974 111.169,182.335 110.981,182.867 109.813 C 183.115 109.269,183.471 108.920,183.660 109.037 C 183.848 109.153,183.815 109.598,183.587 110.024 M113.800 110.800 C 113.482 112.246,113.328 112.222,113.049 110.683 C 112.935 110.053,113.010 109.683,113.225 109.815 C 113.431 109.943,113.600 109.827,113.600 109.557 C 113.600 109.287,113.707 109.174,113.838 109.305 C 113.969 109.436,113.952 110.109,113.800 110.800 M121.729 109.842 C 121.630 110.100,121.202 110.221,120.779 110.110 C 119.829 109.862,120.059 109.371,121.125 109.371 C 121.561 109.371,121.829 109.580,121.729 109.842 M88.000 110.000 C 88.000 110.226,89.133 110.400,90.600 110.400 L 93.200 110.400 93.200 113.000 C 93.200 115.568,93.187 115.600,92.100 115.606 C 91.495 115.609,90.747 115.773,90.437 115.969 C 89.008 116.873,88.000 115.627,88.000 112.956 C 88.000 110.982,87.849 110.352,87.300 110.032 C 86.633 109.644,86.633 109.624,87.300 109.612 C 87.685 109.605,88.000 109.780,88.000 110.000 M188.239 112.184 C 188.284 112.492,188.065 112.843,187.751 112.963 C 187.307 113.134,187.269 113.019,187.577 112.444 C 187.794 112.037,187.888 111.592,187.786 111.453 C 187.684 111.314,187.725 111.295,187.878 111.412 C 188.031 111.528,188.194 111.876,188.239 112.184 M193.083 113.695 C 192.987 114.193,192.905 113.880,192.901 113.000 C 192.896 112.120,192.975 111.713,193.075 112.095 C 193.175 112.478,193.179 113.198,193.083 113.695 M171.093 117.700 C 171.009 118.635,170.940 117.870,170.940 116.000 C 170.940 114.130,171.009 113.365,171.093 114.300 C 171.177 115.235,171.177 116.765,171.093 117.700 M99.891 115.500 C 99.732 116.167,99.709 116.167,99.419 115.500 C 99.252 115.115,99.252 114.485,99.419 114.100 C 99.803 113.219,100.174 114.319,99.891 115.500 M124.400 114.800 C 124.400 115.333,124.133 115.600,123.600 115.600 C 123.067 115.600,122.800 115.333,122.800 114.800 C 122.800 114.267,123.067 114.000,123.600 114.000 C 124.133 114.000,124.400 114.267,124.400 114.800 M187.200 114.800 C 187.200 115.387,186.933 115.600,186.200 115.600 C 185.467 115.600,185.200 115.387,185.200 114.800 C 185.200 114.213,185.467 114.000,186.200 114.000 C 186.933 114.000,187.200 114.213,187.200 114.800 M155.719 117.641 C 155.402 117.958,155.068 117.961,154.539 117.654 C 153.891 117.277,153.946 117.223,154.980 117.212 C 155.841 117.203,156.040 117.320,155.719 117.641 M183.334 118.709 C 182.988 118.929,183.014 119.204,183.434 119.779 C 183.745 120.205,184.000 120.339,184.000 120.076 C 184.000 119.814,184.202 119.600,184.449 119.600 C 184.752 119.600,184.730 119.802,184.382 120.222 C 183.919 120.779,183.785 120.763,183.084 120.062 C 182.302 119.279,182.429 118.395,183.324 118.406 C 183.683 118.411,183.685 118.485,183.334 118.709 M115.200 120.243 C 115.200 120.665,114.982 120.802,114.567 120.643 C 114.219 120.509,113.849 120.400,113.744 120.400 C 113.639 120.400,113.664 120.220,113.800 120.000 C 114.194 119.363,115.200 119.537,115.200 120.243 M158.955 120.757 C 158.809 120.891,158.611 120.776,158.513 120.503 C 158.381 120.135,158.111 120.115,157.468 120.425 C 156.634 120.828,156.630 120.820,157.367 120.229 C 158.113 119.630,159.631 120.135,158.955 120.757 M189.501 120.302 C 189.584 120.552,189.282 120.726,188.826 120.692 C 187.978 120.628,187.790 120.343,188.275 119.858 C 188.640 119.494,189.312 119.737,189.501 120.302 M0.000 135.618 L 0.000 146.835 2.900 146.718 L 5.800 146.600 5.906 135.500 L 6.013 124.400 3.006 124.400 L 0.000 124.400 0.000 135.618 M362.800 135.600 L 362.800 146.800 366.200 146.800 L 369.600 146.800 369.600 135.600 L 369.600 124.400 366.200 124.400 L 362.800 124.400 362.800 135.600 M225.727 139.157 C 225.609 139.610,225.036 140.013,224.303 140.159 C 222.840 140.452,222.000 141.081,222.000 141.885 C 222.000 142.208,221.595 142.799,221.100 143.200 C 219.595 144.417,219.496 154.139,220.970 155.892 C 221.537 156.565,222.000 157.304,222.000 157.535 C 222.000 158.119,223.627 159.200,224.505 159.200 C 224.905 159.200,225.742 159.577,226.366 160.038 C 227.899 161.171,235.726 161.065,236.577 159.900 C 236.858 159.515,237.555 159.200,238.125 159.200 C 238.786 159.200,239.424 158.827,239.881 158.172 C 240.277 157.607,241.050 156.670,241.600 156.091 C 243.009 154.605,243.158 144.572,241.790 143.334 C 241.344 142.930,240.667 142.108,240.285 141.506 C 239.903 140.905,239.097 140.291,238.495 140.142 C 237.893 139.993,237.165 139.540,236.877 139.135 C 236.070 138.000,226.025 138.019,225.727 139.157 M257.280 138.880 C 257.016 139.144,256.800 139.594,256.800 139.880 C 256.800 140.166,256.521 140.400,256.180 140.400 C 255.838 140.400,255.293 141.038,254.967 141.817 C 254.641 142.597,254.110 143.336,253.787 143.460 C 253.464 143.584,253.200 144.116,253.200 144.643 C 253.200 145.333,252.977 145.600,252.400 145.600 C 251.867 145.600,251.600 145.867,251.600 146.400 C 251.600 146.850,251.333 147.200,250.990 147.200 C 250.655 147.200,250.207 147.655,249.996 148.210 C 249.785 148.766,249.346 149.323,249.021 149.447 C 248.696 149.572,248.320 150.023,248.184 150.450 C 248.049 150.877,247.547 151.659,247.069 152.188 C 244.930 154.558,244.400 155.397,244.400 156.413 C 244.400 157.288,244.178 157.544,243.260 157.728 C 242.615 157.857,241.809 158.443,241.403 159.078 C 241.008 159.695,240.351 160.522,239.942 160.916 C 239.534 161.309,239.200 162.052,239.200 162.567 C 239.200 163.662,238.616 164.230,237.098 164.611 C 236.494 164.763,236.000 165.111,236.000 165.385 C 236.000 165.659,235.550 166.369,235.000 166.962 C 234.450 167.556,234.000 168.349,234.000 168.724 C 234.000 169.100,233.640 169.632,233.200 169.907 C 232.760 170.182,232.400 170.675,232.400 171.003 C 232.400 171.333,232.042 171.600,231.600 171.600 C 231.160 171.600,230.800 171.849,230.800 172.154 C 230.800 172.459,230.350 173.003,229.800 173.363 C 229.250 173.724,228.800 174.256,228.800 174.547 C 228.800 174.838,228.440 175.402,228.000 175.800 C 227.560 176.198,227.200 176.946,227.200 177.462 C 227.200 178.122,226.971 178.400,226.427 178.400 C 226.002 178.400,225.543 178.751,225.406 179.180 C 225.270 179.608,224.808 180.070,224.380 180.206 C 223.951 180.343,223.600 180.802,223.600 181.227 C 223.600 181.733,223.324 182.000,222.800 182.000 C 222.236 182.000,222.000 182.267,222.000 182.904 C 222.000 183.401,221.640 184.032,221.200 184.307 C 218.941 185.718,221.933 190.400,225.093 190.400 C 227.452 190.400,228.315 189.862,228.627 188.195 C 228.771 187.428,229.127 186.800,229.418 186.800 C 229.708 186.800,230.060 186.440,230.200 186.000 C 230.340 185.559,230.802 185.013,231.227 184.786 C 231.652 184.558,232.000 184.108,232.000 183.786 C 232.000 183.464,232.268 183.200,232.595 183.200 C 232.922 183.200,233.454 182.567,233.777 181.794 C 234.100 181.021,234.642 180.282,234.982 180.152 C 235.322 180.021,235.600 179.505,235.600 179.004 C 235.600 178.430,235.896 178.016,236.400 177.884 C 236.840 177.769,237.200 177.388,237.200 177.037 C 237.200 176.687,237.464 176.400,237.786 176.400 C 238.479 176.400,239.200 175.190,239.200 174.026 C 239.200 173.572,239.396 173.200,239.634 173.200 C 240.258 173.200,242.800 170.721,242.800 170.112 C 242.800 169.830,243.160 169.240,243.600 168.800 C 244.040 168.360,244.400 167.550,244.400 167.000 C 244.400 166.204,244.601 166.000,245.384 166.000 C 246.409 166.000,248.000 164.625,248.000 163.739 C 248.000 163.458,248.360 163.035,248.800 162.800 C 249.268 162.550,249.600 161.962,249.600 161.386 C 249.600 160.776,249.829 160.400,250.200 160.400 C 250.530 160.400,250.800 160.150,250.800 159.843 C 250.800 159.537,251.250 159.174,251.800 159.036 C 252.446 158.874,252.800 158.504,252.800 157.992 C 252.800 157.557,253.064 157.200,253.386 157.200 C 254.068 157.200,254.800 155.995,254.800 154.873 C 254.800 154.430,255.145 154.003,255.600 153.884 C 256.079 153.759,256.400 153.338,256.400 152.837 C 256.400 152.276,256.655 152.000,257.173 152.000 C 257.598 152.000,258.060 151.640,258.200 151.200 C 258.340 150.760,258.700 150.400,259.000 150.400 C 259.300 150.400,259.674 149.995,259.830 149.500 C 259.987 149.005,260.449 148.365,260.857 148.077 C 261.294 147.770,261.600 147.070,261.600 146.377 C 261.600 145.590,261.802 145.200,262.209 145.200 C 262.543 145.200,263.016 144.764,263.259 144.231 C 263.793 143.058,263.372 140.400,262.652 140.400 C 262.370 140.400,261.717 139.950,261.200 139.400 C 260.179 138.314,258.120 138.040,257.280 138.880 M100.698 142.814 C 100.304 143.446,99.761 143.600,97.926 143.600 C 96.155 143.600,95.529 143.767,95.123 144.345 C 94.735 144.898,93.941 145.138,92.041 145.275 C 90.034 145.420,89.329 145.648,88.776 146.330 C 88.389 146.808,87.708 147.200,87.263 147.200 C 86.805 147.200,86.344 147.547,86.200 148.000 C 86.060 148.440,85.617 148.800,85.215 148.800 C 84.813 148.800,84.060 149.247,83.542 149.793 C 83.024 150.339,82.285 150.789,81.900 150.793 C 81.266 150.799,81.045 151.315,81.090 152.684 C 81.099 152.951,80.992 153.154,80.853 153.137 C 79.827 153.008,79.600 153.346,79.600 155.000 C 79.600 155.990,79.775 156.800,79.990 156.800 C 80.204 156.800,80.659 157.340,81.000 158.000 C 81.341 158.660,81.886 159.200,82.210 159.200 C 82.535 159.200,82.800 159.560,82.800 160.000 C 82.800 160.533,83.067 160.800,83.600 160.800 C 84.145 160.800,84.400 161.067,84.400 161.637 C 84.400 162.138,84.721 162.559,85.200 162.684 C 85.640 162.799,86.000 163.122,86.000 163.401 C 86.000 163.680,86.450 164.203,87.000 164.563 C 87.550 164.924,88.000 165.573,88.000 166.006 C 88.000 166.439,88.360 167.018,88.800 167.293 C 89.240 167.568,89.600 168.106,89.600 168.489 C 89.600 168.898,90.013 169.288,90.600 169.436 C 91.226 169.593,91.600 169.970,91.600 170.443 C 91.600 171.600,95.978 171.571,96.281 170.413 C 96.394 169.981,96.827 169.518,97.243 169.386 C 97.659 169.254,98.000 168.917,98.000 168.637 C 98.000 168.357,98.450 167.923,99.000 167.673 C 99.550 167.422,100.000 166.943,100.000 166.609 C 100.000 166.274,100.317 166.000,100.704 166.000 C 101.091 166.000,101.632 165.640,101.907 165.200 C 102.189 164.749,102.840 164.400,103.400 164.400 C 103.960 164.400,104.611 164.051,104.893 163.600 C 105.248 163.032,105.826 162.800,106.889 162.800 C 108.151 162.800,108.424 162.644,108.636 161.800 C 108.874 160.850,110.400 160.306,110.400 161.171 C 110.400 161.935,111.697 162.800,112.841 162.800 C 113.511 162.800,114.123 163.054,114.250 163.385 C 114.373 163.706,114.817 164.079,115.237 164.212 C 115.657 164.345,116.000 164.729,116.000 165.064 C 116.000 165.400,116.360 165.769,116.800 165.884 C 117.401 166.041,117.600 166.430,117.600 167.447 C 117.600 168.191,117.780 168.800,118.000 168.800 C 119.044 168.800,118.241 169.441,117.100 169.518 C 116.295 169.572,115.465 169.985,114.919 170.603 C 114.435 171.151,113.743 171.600,113.382 171.600 C 113.021 171.600,112.631 171.960,112.516 172.400 C 112.386 172.898,111.970 173.200,111.415 173.200 C 110.925 173.200,110.213 173.544,109.833 173.964 C 109.452 174.384,108.704 174.838,108.171 174.972 C 107.552 175.127,107.200 175.502,107.200 176.008 C 107.200 176.680,106.928 176.800,105.400 176.800 C 104.133 176.800,103.363 177.037,102.800 177.600 C 102.360 178.040,101.661 178.400,101.247 178.400 C 100.832 178.400,100.406 178.736,100.298 179.146 C 100.171 179.631,99.580 179.990,98.607 180.172 C 97.610 180.359,97.044 180.711,96.909 181.226 C 96.788 181.688,96.361 182.000,95.850 182.000 C 95.378 182.000,94.768 182.360,94.493 182.800 C 94.203 183.265,93.560 183.600,92.959 183.600 C 92.262 183.600,91.857 183.860,91.716 184.400 C 91.601 184.840,91.284 185.200,91.013 185.200 C 90.303 185.200,88.000 187.496,88.000 188.203 C 88.000 188.532,87.793 188.800,87.540 188.800 C 86.998 188.800,84.400 191.392,84.400 191.934 C 84.400 192.139,84.040 192.401,83.600 192.516 C 82.964 192.682,82.800 193.062,82.800 194.363 C 82.800 195.697,82.661 196.000,82.050 196.000 C 81.176 196.000,80.800 197.384,80.800 200.603 C 80.800 202.379,80.674 202.740,79.990 202.919 C 79.212 203.122,79.184 203.393,79.290 209.665 L 79.400 216.200 111.420 216.302 C 138.606 216.389,143.558 216.319,144.220 215.835 C 145.108 215.187,145.652 197.661,144.824 196.400 C 144.488 195.889,142.299 195.783,130.015 195.686 C 116.290 195.577,115.600 195.536,115.600 194.830 C 115.600 194.296,116.002 194.014,117.044 193.818 C 117.995 193.640,118.558 193.282,118.691 192.774 C 118.812 192.310,119.240 192.000,119.758 192.000 C 120.234 192.000,120.883 191.640,121.200 191.200 C 121.546 190.719,122.235 190.400,122.926 190.400 C 123.720 190.400,124.137 190.164,124.274 189.638 C 124.403 189.146,124.973 188.782,125.881 188.611 C 126.798 188.439,127.359 188.078,127.491 187.574 C 127.602 187.148,127.936 186.800,128.233 186.800 C 128.529 186.800,128.965 186.440,129.200 186.000 C 129.444 185.544,130.038 185.200,130.581 185.200 C 131.920 185.200,132.800 184.804,132.800 184.201 C 132.800 183.918,133.250 183.574,133.800 183.436 C 134.446 183.274,134.800 182.904,134.800 182.392 C 134.800 181.867,135.069 181.600,135.600 181.600 C 136.133 181.600,136.400 181.333,136.400 180.800 C 136.400 180.276,136.667 180.000,137.173 180.000 C 137.598 180.000,138.060 179.640,138.200 179.200 C 138.340 178.759,138.802 178.213,139.227 177.986 C 139.652 177.758,140.000 177.308,140.000 176.986 C 140.000 176.664,140.360 176.040,140.800 175.600 C 141.768 174.632,142.050 167.699,141.100 168.235 C 140.760 168.427,140.728 168.383,141.000 168.098 C 141.220 167.867,141.760 167.613,142.200 167.534 C 143.653 167.274,143.798 162.800,142.353 162.800 C 141.661 162.800,141.600 162.443,141.600 158.400 C 141.600 154.533,141.503 153.903,140.800 153.200 C 140.360 152.760,140.000 152.113,140.000 151.763 C 140.000 151.412,139.655 151.035,139.234 150.925 C 138.813 150.815,138.359 150.291,138.226 149.762 C 138.073 149.151,137.696 148.800,137.192 148.800 C 136.667 148.800,136.400 148.531,136.400 148.000 C 136.400 147.467,136.133 147.200,135.600 147.200 C 135.150 147.200,134.800 146.933,134.800 146.590 C 134.800 145.874,133.237 145.200,131.577 145.200 C 130.840 145.200,130.222 144.904,129.907 144.400 C 129.538 143.809,128.974 143.600,127.750 143.600 C 126.428 143.600,126.051 143.438,125.884 142.798 C 125.559 141.558,101.473 141.573,100.698 142.814 M160.800 142.837 C 160.800 143.297,160.440 144.131,160.000 144.691 C 159.349 145.518,159.200 146.314,159.200 148.958 C 159.200 151.774,159.093 152.274,158.400 152.707 C 157.658 153.170,157.600 153.640,157.600 159.131 C 157.600 164.952,157.583 165.071,156.600 165.925 C 155.715 166.695,155.600 167.111,155.600 169.535 C 155.600 171.768,155.452 172.410,154.800 173.000 C 154.122 173.614,154.000 174.232,154.000 177.062 C 154.000 179.649,153.875 180.400,153.443 180.400 C 152.594 180.400,152.400 181.329,152.400 185.386 C 152.400 188.672,152.313 189.129,151.659 189.301 C 150.750 189.538,150.072 196.285,150.771 198.125 L 151.180 199.200 161.004 199.200 C 171.836 199.200,172.502 199.065,173.006 196.771 C 173.218 195.806,173.467 195.600,174.418 195.600 C 175.162 195.600,175.724 195.316,176.000 194.800 C 176.245 194.342,176.838 194.000,177.385 194.000 C 177.929 194.000,178.681 193.569,179.129 193.000 C 179.608 192.390,180.322 192.000,180.958 192.000 C 181.803 192.000,182.000 192.189,182.000 193.000 C 182.000 193.800,182.200 194.000,183.000 194.000 C 183.622 194.000,184.000 194.227,184.000 194.600 C 184.000 194.930,184.171 195.200,184.379 195.200 C 184.588 195.200,185.244 195.650,185.838 196.200 C 186.431 196.750,187.096 197.200,187.314 197.200 C 190.207 197.200,189.231 208.582,186.240 209.729 C 185.888 209.864,185.600 210.255,185.600 210.597 C 185.600 210.940,185.150 211.391,184.600 211.600 C 184.050 211.809,183.600 212.244,183.600 212.567 C 183.600 212.972,183.072 213.192,181.900 213.277 C 180.357 213.389,180.200 213.498,180.200 214.464 C 180.200 215.050,180.036 215.680,179.836 215.864 C 179.624 216.060,179.592 215.991,179.759 215.701 C 180.370 214.640,177.977 213.226,175.547 213.213 C 173.636 213.202,173.262 213.079,173.084 212.400 C 172.969 211.960,172.541 211.600,172.132 211.600 C 171.724 211.600,171.212 211.195,170.995 210.700 C 170.774 210.196,170.164 209.739,169.610 209.660 C 169.065 209.584,168.380 209.179,168.087 208.760 C 167.794 208.342,167.205 208.000,166.777 208.000 C 166.346 208.000,166.000 207.727,166.000 207.387 C 166.000 207.051,165.716 206.666,165.369 206.533 C 165.023 206.400,164.569 205.845,164.362 205.301 C 163.490 203.008,157.620 204.397,157.606 206.900 C 157.602 207.674,157.392 208.004,156.900 208.013 C 156.163 208.026,154.000 209.727,154.000 210.293 C 154.000 210.474,153.640 210.883,153.200 211.200 C 152.760 211.517,152.400 212.085,152.400 212.461 C 152.400 212.838,152.040 213.260,151.600 213.400 C 151.160 213.540,150.800 213.869,150.800 214.132 C 150.800 214.395,150.395 214.788,149.900 215.005 C 148.574 215.587,148.300 221.144,149.582 221.479 C 150.034 221.598,150.400 222.024,150.400 222.433 C 150.400 222.839,150.760 223.365,151.201 223.600 C 151.641 223.836,152.262 224.652,152.580 225.414 C 153.061 226.566,153.365 226.800,154.380 226.800 C 155.188 226.800,155.600 226.999,155.600 227.390 C 155.600 227.714,156.118 228.247,156.752 228.575 C 157.385 228.902,158.009 229.447,158.139 229.785 C 158.311 230.234,158.961 230.400,160.541 230.400 C 162.370 230.400,162.739 230.524,162.916 231.200 C 163.096 231.888,163.462 232.000,165.535 232.000 C 167.729 232.000,167.956 232.080,168.072 232.900 L 168.200 233.800 178.400 233.913 C 189.624 234.036,190.400 233.964,190.400 232.792 C 190.400 232.120,190.672 232.000,192.200 232.000 C 193.467 232.000,194.237 231.763,194.800 231.200 C 195.325 230.675,196.133 230.400,197.151 230.400 C 198.106 230.400,198.913 230.146,199.251 229.738 C 199.553 229.374,200.385 228.832,201.100 228.533 C 201.815 228.234,202.400 227.722,202.400 227.395 C 202.400 227.068,202.757 226.800,203.192 226.800 C 204.052 226.800,204.635 225.342,204.296 224.044 C 204.154 223.503,204.281 223.348,204.763 223.474 C 205.718 223.724,207.600 222.917,207.600 222.257 C 207.600 221.947,207.955 221.600,208.389 221.487 C 208.949 221.341,209.254 220.805,209.440 219.640 C 209.587 218.722,209.925 218.000,210.208 218.000 C 210.913 218.000,211.200 217.064,211.200 214.767 C 211.200 213.271,211.346 212.800,211.810 212.800 C 212.145 212.800,212.595 212.338,212.810 211.774 C 213.297 210.494,213.327 204.800,212.847 204.800 C 212.652 204.800,212.391 204.395,212.267 203.900 C 212.048 203.031,212.060 203.027,212.620 203.776 C 213.138 204.469,213.200 204.033,213.200 199.726 C 213.200 193.796,212.962 192.400,211.950 192.400 C 211.303 192.400,211.200 192.082,211.200 190.075 C 211.200 188.372,211.004 187.540,210.465 186.962 C 210.061 186.528,209.610 185.696,209.464 185.113 C 209.318 184.530,208.858 183.945,208.442 183.813 C 208.027 183.681,207.594 183.219,207.481 182.787 C 207.367 182.354,207.000 182.000,206.664 182.000 C 206.329 182.000,205.940 181.640,205.800 181.200 C 205.660 180.760,205.317 180.400,205.037 180.400 C 204.757 180.400,204.323 179.950,204.073 179.400 C 203.822 178.850,203.387 178.400,203.105 178.400 C 202.823 178.400,202.368 178.040,202.093 177.600 C 201.693 176.960,201.160 176.800,199.424 176.800 C 197.480 176.800,197.242 176.707,197.128 175.900 C 197.026 175.180,196.705 174.975,195.520 174.877 C 194.472 174.790,193.967 174.527,193.793 173.977 C 193.560 173.243,193.119 173.200,185.873 173.200 L 178.200 173.200 178.331 169.500 C 178.413 167.156,178.707 165.254,179.131 164.310 L 179.800 162.821 193.451 162.810 C 204.533 162.802,207.188 162.697,207.558 162.250 C 207.879 161.864,207.983 158.807,207.907 151.950 L 207.800 142.200 186.626 142.096 C 169.952 142.015,165.384 142.100,165.132 142.496 C 164.878 142.896,164.811 142.897,164.806 142.500 C 164.803 142.225,164.519 142.000,164.176 142.000 C 163.833 142.000,163.645 142.150,163.759 142.333 C 163.872 142.517,163.711 142.667,163.400 142.667 C 163.089 142.667,162.928 142.517,163.041 142.333 C 163.155 142.150,162.697 142.000,162.024 142.000 C 161.049 142.000,160.800 142.170,160.800 142.837 M186.200 142.800 C 186.803 143.059,186.558 143.144,185.200 143.144 C 183.842 143.144,183.597 143.059,184.200 142.800 C 184.640 142.611,185.090 142.456,185.200 142.456 C 185.310 142.456,185.760 142.611,186.200 142.800 M126.619 144.314 C 126.503 144.431,126.583 144.738,126.797 144.997 C 127.065 145.320,127.007 145.467,126.611 145.467 C 126.294 145.467,126.128 145.317,126.241 145.133 C 126.355 144.950,126.276 144.800,126.066 144.800 C 125.857 144.800,125.590 144.550,125.473 144.245 C 125.322 143.853,125.491 143.751,126.046 143.896 C 126.478 144.009,126.736 144.197,126.619 144.314 M232.400 145.837 C 232.400 146.188,232.736 146.563,233.147 146.670 C 234.135 146.929,235.136 149.824,234.468 150.492 C 234.211 150.749,234.000 151.284,234.000 151.680 C 234.000 152.076,233.713 152.400,233.363 152.400 C 233.012 152.400,232.631 152.760,232.516 153.200 C 232.384 153.703,231.970 154.000,231.400 154.000 C 230.830 154.000,230.416 153.703,230.284 153.200 C 230.159 152.721,229.738 152.400,229.237 152.400 C 228.667 152.400,228.400 152.145,228.400 151.600 C 228.400 151.067,228.133 150.800,227.600 150.800 C 226.978 150.800,226.800 150.533,226.800 149.600 C 226.800 148.769,226.996 148.400,227.437 148.400 C 227.788 148.400,228.169 148.040,228.284 147.600 C 228.404 147.140,228.830 146.800,229.284 146.800 C 229.738 146.800,230.164 146.460,230.284 146.000 C 230.543 145.009,232.400 144.866,232.400 145.837 M257.849 148.500 C 257.757 149.077,256.845 150.699,256.782 150.400 C 256.517 149.164,256.520 148.827,256.793 148.996 C 256.971 149.106,257.219 148.926,257.346 148.598 C 257.624 147.872,257.960 147.807,257.849 148.500 M-0.000 161.837 L -0.000 173.310 2.637 173.098 C 6.222 172.810,6.027 173.509,5.907 161.373 L 5.800 150.600 2.900 150.482 L 0.000 150.365 -0.000 161.837 M362.800 161.376 C 362.800 168.084,362.952 172.447,363.190 172.594 C 363.866 173.012,367.488 173.315,368.567 173.044 L 369.600 172.785 369.600 161.592 L 369.600 150.400 366.200 150.400 L 362.800 150.400 362.800 161.376 M83.200 152.938 C 83.200 153.014,82.733 153.599,82.162 154.238 C 81.201 155.313,81.161 155.326,81.622 154.400 C 82.133 153.374,83.200 152.385,83.200 152.938 M248.946 153.798 C 248.819 154.126,248.555 154.296,248.358 154.174 C 248.161 154.052,248.000 154.173,248.000 154.443 C 248.000 154.713,247.865 154.799,247.701 154.634 C 247.536 154.469,247.750 154.079,248.177 153.767 C 249.150 153.056,249.229 153.059,248.946 153.798 M248.196 155.607 C 248.058 155.830,247.777 155.909,247.572 155.783 C 247.368 155.656,247.200 155.773,247.200 156.043 C 247.200 156.313,247.092 156.425,246.960 156.293 C 246.590 155.923,247.176 155.200,247.847 155.200 C 248.177 155.200,248.334 155.383,248.196 155.607 M140.900 158.538 C 140.845 158.682,140.710 158.800,140.600 158.800 C 140.490 158.800,140.220 158.800,140.000 158.800 C 139.780 158.800,139.600 158.636,139.600 158.435 C 139.600 158.235,139.915 158.117,140.300 158.174 C 140.685 158.230,140.955 158.394,140.900 158.538 M246.707 168.800 C 246.432 169.240,245.955 169.600,245.647 169.600 C 244.996 169.600,242.800 171.784,242.800 172.432 C 242.800 172.674,242.395 173.199,241.900 173.600 C 240.148 175.018,240.556 184.800,242.367 184.800 C 242.557 184.800,242.826 185.250,242.964 185.800 C 243.102 186.350,243.482 186.800,243.808 186.800 C 244.133 186.800,244.400 187.074,244.400 187.409 C 244.400 187.743,244.893 188.238,245.495 188.509 C 246.096 188.779,246.906 189.315,247.295 189.700 C 248.412 190.809,258.987 190.746,259.586 189.627 C 259.813 189.202,260.359 188.740,260.800 188.600 C 261.240 188.460,261.600 187.998,261.600 187.573 C 261.600 187.146,261.874 186.800,262.213 186.800 C 262.549 186.800,262.940 186.485,263.081 186.100 C 263.221 185.715,263.770 184.874,264.301 184.230 C 265.565 182.698,265.564 174.257,264.300 173.551 C 263.915 173.336,263.595 172.944,263.588 172.680 C 263.571 171.977,261.305 169.600,260.652 169.600 C 260.345 169.600,259.999 169.240,259.884 168.800 C 259.686 168.043,259.338 168.000,253.441 168.000 C 247.640 168.000,247.172 168.056,246.707 168.800 M118.394 170.076 C 118.397 169.788,118.599 169.676,118.843 169.826 C 119.154 170.019,119.129 170.196,118.762 170.424 C 118.144 170.805,117.598 170.547,117.606 169.876 C 117.610 169.590,117.767 169.639,118.000 170.000 C 118.282 170.436,118.389 170.457,118.394 170.076 M184.085 174.029 C 186.191 174.068,188.159 174.260,188.457 174.455 C 188.786 174.670,186.986 174.791,183.887 174.762 C 179.584 174.722,178.846 174.627,179.232 174.162 C 179.484 173.858,179.818 173.687,179.973 173.783 C 180.128 173.879,181.978 173.990,184.085 174.029 M255.339 175.785 C 255.469 176.123,255.851 176.400,256.187 176.400 C 256.526 176.400,256.800 176.746,256.800 177.173 C 256.800 177.598,257.151 178.057,257.580 178.194 C 258.352 178.439,258.352 178.448,257.580 179.220 C 257.151 179.649,256.800 180.450,256.800 181.000 C 256.800 181.748,256.589 182.000,255.963 182.000 C 255.462 182.000,255.041 182.321,254.916 182.800 C 254.762 183.387,254.370 183.600,253.442 183.600 C 252.635 183.600,251.967 183.310,251.600 182.800 C 251.283 182.360,250.703 182.000,250.312 182.000 C 249.057 182.000,249.298 177.139,250.618 175.818 C 251.178 175.258,251.898 174.800,252.218 174.800 C 252.538 174.800,252.800 174.615,252.800 174.390 C 252.800 173.802,255.053 175.040,255.339 175.785 M0.000 188.056 L 0.000 199.312 2.300 199.075 C 6.061 198.688,6.000 198.887,6.000 186.956 L 6.000 176.800 3.000 176.800 L 0.000 176.800 0.000 188.056 M362.800 186.956 C 362.800 198.734,362.778 198.656,366.225 199.058 C 369.663 199.458,369.600 199.675,369.600 187.371 L 369.600 176.800 366.200 176.800 L 362.800 176.800 362.800 186.956 M154.670 183.863 C 154.525 184.008,154.590 184.347,154.814 184.616 C 155.098 184.959,155.058 185.169,154.680 185.314 C 154.315 185.454,154.171 185.243,154.236 184.661 C 154.359 183.576,154.349 183.600,154.667 183.600 C 154.813 183.600,154.815 183.718,154.670 183.863 M227.600 198.400 C 227.160 198.840,226.542 199.200,226.227 199.200 C 225.912 199.200,225.540 199.560,225.400 200.000 C 225.260 200.440,224.957 200.800,224.727 200.800 C 223.294 200.800,220.303 205.032,220.092 207.359 C 219.952 208.900,219.621 209.979,219.139 210.461 C 218.023 211.577,218.069 215.988,219.200 216.284 C 219.884 216.463,220.000 216.830,220.000 218.821 C 220.000 221.535,220.529 223.200,221.390 223.200 C 221.774 223.200,222.000 223.571,222.000 224.200 C 222.000 224.933,222.213 225.200,222.800 225.200 C 223.333 225.200,223.600 225.467,223.600 226.000 C 223.600 226.524,223.867 226.800,224.373 226.800 C 224.800 226.800,225.262 227.166,225.405 227.616 C 225.558 228.096,226.137 228.527,226.812 228.662 C 227.443 228.789,228.266 229.231,228.642 229.646 C 229.697 230.812,238.825 230.775,240.000 229.600 C 240.440 229.160,241.168 228.800,241.618 228.800 C 242.068 228.800,242.886 228.350,243.436 227.800 C 243.986 227.250,244.686 226.800,244.991 226.800 C 245.296 226.800,245.662 226.434,245.804 225.987 C 245.946 225.540,246.498 224.704,247.031 224.129 C 247.564 223.554,248.000 222.839,248.000 222.542 C 248.000 222.244,248.360 221.640,248.800 221.200 L 249.600 220.400 249.600 224.600 C 249.600 230.251,249.744 230.400,255.209 230.400 C 259.059 230.400,259.235 230.362,259.657 229.434 C 259.899 228.903,260.436 228.379,260.849 228.271 C 261.532 228.093,261.600 227.634,261.600 223.237 L 261.600 218.400 266.000 218.400 L 270.400 218.400 270.400 214.000 L 270.400 209.600 266.000 209.600 L 261.600 209.600 261.600 207.800 L 261.600 206.000 265.624 206.000 C 268.726 206.000,269.583 205.886,269.365 205.500 C 269.139 205.100,269.190 205.100,269.621 205.500 C 269.918 205.775,270.664 206.000,271.280 206.000 L 272.400 206.000 272.400 217.567 C 272.400 231.720,271.941 230.400,276.862 230.400 C 282.536 230.400,282.800 230.086,282.800 223.342 L 282.800 218.400 287.551 218.400 C 293.422 218.400,293.366 218.447,293.120 213.766 C 292.898 209.541,293.001 209.614,287.300 209.606 L 282.800 209.600 282.800 207.800 L 282.800 206.000 288.814 206.000 L 294.828 206.000 294.714 201.900 L 294.600 197.800 272.200 197.800 L 249.800 197.800 249.687 202.537 L 249.574 207.275 248.812 206.306 C 248.393 205.773,247.923 204.833,247.768 204.216 C 247.614 203.600,247.152 203.008,246.744 202.901 C 246.335 202.794,246.000 202.453,246.000 202.143 C 246.000 201.834,245.550 201.409,245.000 201.200 C 244.450 200.991,244.000 200.545,244.000 200.210 C 244.000 199.874,243.756 199.600,243.458 199.600 C 243.161 199.600,242.431 199.150,241.838 198.600 C 240.322 197.195,228.964 197.036,227.600 198.400 M0.000 212.400 L 0.000 223.600 3.000 223.600 L 6.000 223.600 6.000 213.200 C 6.000 201.004,6.062 201.200,2.200 201.200 L 0.000 201.200 0.000 212.400 M363.600 202.000 C 362.841 202.759,362.800 203.333,362.800 213.200 L 362.800 223.600 366.200 223.600 C 369.529 223.600,369.600 223.580,369.600 222.633 C 369.600 222.102,369.375 221.576,369.100 221.465 C 368.700 221.304,368.700 221.257,369.100 221.232 C 369.744 221.191,369.824 203.166,369.186 201.974 C 368.583 200.848,364.734 200.866,363.600 202.000 M3.600 203.545 C 3.600 203.734,3.150 203.803,2.600 203.698 C 1.316 203.452,1.316 203.200,2.600 203.200 C 3.150 203.200,3.600 203.355,3.600 203.545 M258.840 207.085 C 258.456 207.745,258.423 207.736,258.412 206.967 C 258.399 206.041,258.906 205.319,259.120 205.960 C 259.195 206.185,259.069 206.692,258.840 207.085 M247.320 208.017 C 247.498 208.697,247.435 208.761,246.969 208.374 C 246.656 208.114,246.400 207.643,246.400 207.327 C 246.400 206.523,247.059 207.016,247.320 208.017 M273.600 207.800 C 273.600 208.104,273.420 208.464,273.200 208.600 C 272.972 208.741,272.800 208.396,272.800 207.800 C 272.800 207.204,272.972 206.859,273.200 207.000 C 273.420 207.136,273.600 207.496,273.600 207.800 M235.867 208.231 C 236.000 208.577,236.535 209.023,237.055 209.221 C 237.575 209.418,238.000 209.855,238.000 210.190 C 238.000 210.526,238.270 210.800,238.600 210.800 C 239.080 210.800,239.200 211.400,239.200 213.800 C 239.200 216.533,239.129 216.800,238.400 216.800 C 237.883 216.800,237.600 217.067,237.600 217.553 C 237.600 217.970,237.243 218.400,236.800 218.516 C 236.360 218.631,236.000 219.012,236.000 219.363 C 236.000 219.861,235.563 220.000,234.000 220.000 C 232.267 220.000,232.000 219.893,232.000 219.200 C 232.000 218.667,231.733 218.400,231.200 218.400 C 230.449 218.400,230.400 218.133,230.400 214.047 C 230.400 210.030,230.462 209.677,231.200 209.484 C 231.640 209.369,232.000 209.001,232.000 208.665 C 232.000 207.637,235.489 207.245,235.867 208.231 M273.600 216.600 C 273.600 216.904,273.420 217.264,273.200 217.400 C 272.972 217.541,272.800 217.196,272.800 216.600 C 272.800 216.004,272.972 215.659,273.200 215.800 C 273.420 215.936,273.600 216.296,273.600 216.600 M259.194 220.724 C 259.191 221.536,259.013 222.470,258.800 222.800 C 258.525 223.225,258.410 222.724,258.406 221.076 C 258.402 219.628,258.551 218.846,258.800 219.000 C 259.020 219.136,259.197 219.912,259.194 220.724 M273.600 222.600 C 273.600 223.344,273.420 224.064,273.200 224.200 C 272.955 224.351,272.800 223.730,272.800 222.600 C 272.800 221.470,272.955 220.849,273.200 221.000 C 273.420 221.136,273.600 221.856,273.600 222.600 M273.600 227.047 C 273.600 227.377,273.420 227.536,273.200 227.400 C 272.980 227.264,272.800 226.883,272.800 226.553 C 272.800 226.223,272.980 226.064,273.200 226.200 C 273.420 226.336,273.600 226.717,273.600 227.047 M0.000 238.400 L 0.000 249.600 3.000 249.600 L 6.000 249.600 6.000 239.033 C 6.000 226.300,6.247 227.200,2.757 227.200 L 0.000 227.200 0.000 238.400 M363.049 227.817 C 362.912 228.174,362.800 233.221,362.800 239.033 L 362.800 249.600 366.206 249.600 L 369.613 249.600 369.506 238.500 L 369.400 227.400 366.349 227.284 C 363.834 227.188,363.254 227.282,363.049 227.817 M162.886 229.347 C 163.142 229.188,163.210 229.261,163.049 229.521 C 162.664 230.144,161.597 229.651,161.612 228.857 C 161.623 228.279,161.674 228.285,162.037 228.908 C 162.264 229.298,162.646 229.495,162.886 229.347 M0.000 264.382 L 0.000 275.600 3.006 275.600 L 6.013 275.600 5.906 264.500 L 5.800 253.400 2.900 253.282 L 0.000 253.165 0.000 264.382 M80.896 271.300 L 81.000 289.400 83.800 289.503 C 87.875 289.653,87.777 289.806,87.938 283.015 L 88.075 277.200 90.866 277.200 C 93.894 277.200,94.491 277.513,94.951 279.346 C 95.111 279.984,95.580 280.574,96.018 280.689 C 96.461 280.805,96.800 281.236,96.800 281.684 C 96.800 282.138,97.140 282.564,97.600 282.684 C 98.162 282.831,98.400 283.230,98.400 284.024 C 98.400 284.700,98.721 285.379,99.197 285.713 C 99.636 286.020,100.111 286.854,100.253 287.567 C 100.746 290.031,108.459 290.641,108.733 288.237 C 108.971 286.149,108.446 284.400,107.582 284.400 C 107.067 284.400,106.800 284.127,106.800 283.600 C 106.800 283.160,106.440 282.440,106.000 282.000 C 105.560 281.560,105.200 280.852,105.200 280.427 C 105.200 280.002,104.867 279.548,104.461 279.419 C 104.042 279.286,103.519 278.507,103.253 277.620 C 102.992 276.749,102.478 275.975,102.092 275.874 C 101.676 275.765,101.838 275.674,102.500 275.646 C 103.318 275.612,103.600 275.395,103.600 274.800 C 103.600 274.190,103.867 274.000,104.720 274.000 C 105.951 274.000,106.800 273.366,106.800 272.446 C 106.800 272.119,107.205 271.421,107.700 270.894 C 109.330 269.160,109.222 258.940,107.569 258.508 C 107.093 258.383,106.800 257.958,106.800 257.391 C 106.800 256.784,106.139 255.921,104.844 254.837 C 102.895 253.205,100.885 252.603,101.340 253.787 C 101.464 254.110,101.365 254.498,101.121 254.649 C 100.846 254.819,100.789 254.741,100.972 254.446 C 101.185 254.101,100.980 254.040,100.234 254.227 C 99.564 254.395,99.200 254.322,99.200 254.020 C 99.200 253.763,99.380 253.664,99.600 253.800 C 99.820 253.936,100.000 253.857,100.000 253.624 C 100.000 253.337,96.889 253.200,90.396 253.200 L 80.792 253.200 80.896 271.300 M112.889 253.671 C 112.281 254.279,112.188 287.845,112.791 288.800 C 113.116 289.314,115.085 289.400,126.485 289.400 L 139.800 289.400 139.800 287.000 L 139.800 284.600 130.300 284.493 L 120.800 284.386 120.800 279.193 L 120.800 274.000 127.967 274.000 C 136.986 274.000,136.400 274.253,136.400 270.357 L 136.400 267.200 128.600 267.200 L 120.800 267.200 120.800 262.821 L 120.800 258.442 130.015 258.321 C 140.373 258.185,140.082 258.277,139.904 255.200 C 139.814 253.642,139.671 253.382,138.844 253.265 C 138.173 253.170,137.949 253.290,138.094 253.667 C 138.207 253.962,138.046 254.442,137.735 254.732 C 137.255 255.180,137.208 255.107,137.423 254.251 L 137.676 253.242 125.527 253.212 C 116.454 253.190,113.254 253.306,112.889 253.671 M144.896 253.995 C 144.523 254.592,144.400 258.711,144.400 270.607 L 144.400 286.426 145.300 286.788 C 145.795 286.987,145.975 287.161,145.700 287.175 C 145.417 287.189,145.200 287.720,145.200 288.400 L 145.200 289.600 147.826 289.600 C 152.085 289.600,152.000 289.735,152.000 282.986 L 152.000 277.200 158.837 277.200 C 165.338 277.200,165.685 277.161,165.884 276.400 C 166.004 275.940,166.430 275.600,166.884 275.600 C 167.325 275.600,167.763 275.263,167.874 274.838 C 168.000 274.358,168.564 273.983,169.398 273.827 C 170.739 273.575,171.200 272.988,171.200 271.531 C 171.200 271.090,171.596 270.408,172.079 270.016 C 173.430 268.922,173.446 261.347,172.100 259.909 C 171.605 259.381,171.200 258.465,171.200 257.874 C 171.200 257.067,171.001 256.800,170.400 256.800 C 169.855 256.800,169.600 256.533,169.600 255.963 C 169.600 255.466,169.280 255.041,168.813 254.919 C 168.381 254.806,167.918 254.373,167.786 253.957 C 167.404 252.751,145.651 252.787,144.896 253.995 M184.456 253.557 C 184.157 253.746,183.820 254.726,183.706 255.734 C 183.586 256.804,183.188 257.849,182.750 258.245 C 182.293 258.659,182.000 259.463,182.000 260.304 C 182.000 261.193,181.644 262.108,181.000 262.873 C 180.450 263.527,180.000 264.334,180.000 264.668 C 180.000 265.001,179.640 265.731,179.200 266.291 C 178.760 266.850,178.400 267.644,178.400 268.054 C 178.400 268.464,178.040 269.160,177.600 269.600 C 176.967 270.233,176.800 270.933,176.800 272.957 C 176.800 275.350,176.736 275.529,175.800 275.764 C 175.014 275.962,174.800 276.270,174.800 277.204 C 174.800 277.960,174.509 278.575,174.000 278.893 C 173.403 279.265,173.200 279.826,173.200 281.096 C 173.200 282.533,173.075 282.800,172.400 282.800 C 171.725 282.800,171.600 283.067,171.600 284.511 C 171.600 285.727,171.369 286.420,170.800 286.907 C 168.967 288.476,170.655 289.600,174.846 289.600 C 178.011 289.600,178.400 289.392,178.400 287.699 C 178.400 287.349,178.686 286.747,179.035 286.361 C 179.396 285.963,179.766 284.609,179.891 283.230 C 180.074 281.206,180.236 280.800,180.856 280.800 C 181.333 280.800,181.600 280.513,181.600 280.000 C 181.600 279.233,181.867 279.200,188.150 279.200 C 191.753 279.200,195.218 279.134,195.850 279.054 C 196.483 278.974,196.661 278.989,196.248 279.089 C 195.134 279.356,195.548 283.808,196.766 284.661 C 197.283 285.023,197.600 285.683,197.600 286.396 C 197.600 287.195,197.844 287.624,198.400 287.800 C 198.840 287.940,199.200 288.402,199.200 288.827 C 199.200 289.619,203.681 290.004,205.367 289.357 C 206.247 289.020,206.181 286.740,205.256 285.554 C 204.834 285.012,204.424 283.663,204.309 282.433 C 204.186 281.136,203.856 280.084,203.485 279.813 C 203.145 279.564,202.737 278.671,202.579 277.829 C 202.390 276.824,202.035 276.230,201.546 276.102 C 201.007 275.961,200.800 275.538,200.800 274.576 C 200.800 273.721,200.528 273.055,200.038 272.712 C 199.571 272.385,199.167 271.454,198.996 270.313 C 198.842 269.287,198.375 268.140,197.958 267.762 C 197.458 267.310,197.200 266.539,197.200 265.501 C 197.200 264.262,197.029 263.880,196.400 263.716 C 195.779 263.553,195.600 263.170,195.600 262.000 C 195.600 260.847,195.418 260.446,194.827 260.291 C 194.263 260.144,194.019 259.671,193.927 258.544 C 193.824 257.294,193.628 256.976,192.900 256.872 C 192.121 256.762,192.000 256.505,192.000 254.972 L 192.000 253.200 188.500 253.206 C 186.575 253.209,184.755 253.367,184.456 253.557 M208.267 253.467 C 207.653 254.080,207.969 288.676,208.592 289.194 C 209.460 289.914,215.509 289.590,216.011 288.796 C 216.605 287.857,216.518 254.278,215.920 253.680 C 215.410 253.170,208.749 252.984,208.267 253.467 M222.000 271.400 L 222.000 289.600 225.111 289.600 C 229.590 289.600,229.762 289.347,229.931 282.500 L 230.062 277.200 233.031 277.200 C 235.699 277.200,236.000 277.278,236.000 277.973 C 236.000 278.398,236.341 278.854,236.757 278.986 C 237.173 279.118,237.606 279.581,237.719 280.013 C 237.833 280.446,238.189 280.800,238.511 280.800 C 238.886 280.800,239.190 281.377,239.354 282.400 C 239.519 283.435,239.820 284.000,240.205 284.000 C 240.532 284.000,240.800 284.309,240.800 284.687 C 240.800 285.065,241.234 285.748,241.765 286.204 C 242.296 286.660,242.791 287.566,242.865 288.217 L 243.000 289.400 246.540 289.516 C 252.196 289.702,252.866 287.783,248.741 283.212 C 248.378 282.810,247.954 281.901,247.798 281.192 C 247.628 280.417,247.213 279.824,246.758 279.705 C 246.336 279.595,246.000 279.156,246.000 278.716 C 246.000 278.275,245.663 277.837,245.240 277.726 C 244.029 277.410,243.872 275.600,245.055 275.600 C 245.733 275.600,246.000 275.374,246.000 274.800 C 246.000 274.305,246.267 274.000,246.700 274.000 C 247.085 274.000,247.895 273.380,248.500 272.621 L 249.600 271.243 249.600 264.621 C 249.600 258.648,249.526 257.926,248.839 257.239 C 248.421 256.821,247.959 256.101,247.813 255.639 C 247.666 255.178,247.219 254.800,246.820 254.800 C 246.420 254.800,245.999 254.440,245.884 254.000 C 245.706 253.318,245.338 253.200,243.395 253.200 C 241.615 253.200,241.161 253.322,241.327 253.755 C 241.476 254.143,241.311 254.249,240.775 254.109 C 240.354 253.999,240.108 253.750,240.228 253.555 C 240.353 253.352,236.482 253.200,231.224 253.200 L 222.000 253.200 222.000 271.400 M257.392 254.100 C 255.173 255.956,254.800 256.424,254.800 257.353 C 254.800 257.970,254.518 258.381,254.000 258.516 C 252.786 258.833,252.765 267.961,253.978 268.278 C 254.405 268.390,254.810 268.868,254.878 269.341 C 254.954 269.879,255.337 270.248,255.900 270.328 C 256.478 270.410,256.800 270.732,256.800 271.228 C 256.800 271.876,257.088 272.000,258.600 272.000 C 260.099 272.000,260.400 272.126,260.400 272.757 C 260.400 273.838,261.128 274.000,265.986 274.000 C 269.970 274.000,270.323 274.062,270.516 274.800 C 270.641 275.279,271.062 275.600,271.563 275.600 C 272.062 275.600,272.400 275.857,272.400 276.237 C 272.400 276.588,272.760 276.969,273.200 277.084 C 273.640 277.199,274.000 277.532,274.000 277.824 C 274.000 278.116,274.400 278.635,274.889 278.977 C 275.579 279.461,275.631 279.600,275.121 279.600 C 274.726 279.600,274.365 280.048,274.217 280.722 C 274.081 281.340,273.617 282.099,273.185 282.411 C 272.753 282.722,272.400 283.297,272.400 283.688 C 272.400 284.846,263.788 284.761,263.484 283.600 C 263.359 283.121,262.938 282.800,262.437 282.800 C 261.960 282.800,261.600 282.542,261.600 282.200 C 261.600 281.870,261.445 281.600,261.255 281.600 C 261.065 281.600,260.221 281.052,259.378 280.382 C 258.022 279.305,257.590 279.178,255.623 279.282 L 253.400 279.400 253.283 282.505 C 253.148 286.092,253.985 287.307,256.942 287.818 C 257.791 287.965,258.826 288.426,259.242 288.842 C 260.024 289.624,264.292 289.996,263.826 289.242 C 263.615 288.901,264.452 288.400,265.233 288.400 C 265.886 288.400,265.622 289.136,264.900 289.324 C 264.515 289.425,266.765 289.528,269.900 289.554 C 275.349 289.598,275.600 289.565,275.600 288.800 C 275.600 288.159,275.867 288.000,276.941 288.000 C 278.935 288.000,280.800 286.088,280.800 284.043 C 280.800 282.872,280.981 282.446,281.539 282.300 C 282.410 282.072,282.868 279.932,282.514 277.747 C 282.360 276.797,282.022 276.226,281.539 276.100 C 280.962 275.949,280.800 275.522,280.800 274.153 C 280.800 272.667,280.678 272.400,280.000 272.400 C 279.560 272.400,279.200 272.136,279.200 271.814 C 279.200 271.087,277.973 270.400,276.673 270.400 C 276.030 270.400,275.621 270.125,275.484 269.600 C 275.304 268.910,274.938 268.800,272.837 268.800 C 270.667 268.800,270.400 268.712,270.400 268.000 C 270.400 267.277,270.133 267.200,267.647 267.200 C 265.230 267.200,264.868 267.102,264.684 266.400 C 264.562 265.934,264.138 265.600,263.670 265.600 C 261.849 265.600,261.600 265.234,261.600 262.557 C 261.600 260.296,261.690 260.000,262.373 260.000 C 262.798 260.000,263.260 259.640,263.400 259.200 C 263.728 258.168,270.800 257.947,270.800 258.968 C 270.800 259.281,271.349 259.657,272.019 259.804 C 272.690 259.951,273.453 260.416,273.715 260.836 C 274.532 262.144,278.555 261.922,279.807 260.500 C 280.991 259.154,281.065 257.635,280.000 256.492 C 279.560 256.020,279.200 255.446,279.200 255.217 C 279.200 254.988,278.970 254.800,278.688 254.800 C 278.407 254.800,277.917 254.440,277.600 254.000 C 276.869 252.986,274.119 252.884,273.417 253.844 C 272.984 254.437,272.894 254.437,272.302 253.844 C 271.487 253.029,270.000 253.001,270.000 253.800 C 270.000 254.130,269.826 254.400,269.613 254.400 C 269.399 254.400,269.329 254.130,269.455 253.800 C 269.890 252.668,258.773 252.945,257.392 254.100 M286.000 265.974 C 286.000 273.701,286.161 279.173,286.409 279.823 C 286.691 280.565,286.686 281.055,286.393 281.408 C 286.141 281.712,286.016 283.437,286.084 285.660 L 286.200 289.400 289.365 289.518 C 291.627 289.602,292.624 289.488,292.859 289.118 C 293.486 288.130,293.262 281.750,292.581 281.184 C 292.087 280.775,292.067 280.606,292.481 280.350 C 292.890 280.098,293.000 277.195,293.000 266.715 L 293.000 253.400 291.845 253.268 C 290.837 253.153,290.718 253.245,290.914 253.991 C 291.085 254.647,291.020 254.748,290.632 254.426 C 290.354 254.196,290.008 254.125,289.863 254.270 C 289.718 254.415,289.600 254.233,289.600 253.867 C 289.600 253.343,289.213 253.200,287.800 253.200 L 286.000 253.200 286.000 265.974 M363.067 253.467 C 362.920 253.613,362.800 258.653,362.800 264.667 L 362.800 275.600 366.200 275.600 L 369.600 275.600 369.600 264.400 L 369.600 253.200 366.467 253.200 C 364.743 253.200,363.213 253.320,363.067 253.467 M149.880 259.500 L 149.910 261.400 149.637 259.800 C 149.396 258.384,149.435 257.600,149.749 257.600 C 149.805 257.600,149.864 258.455,149.880 259.500 M98.093 259.200 C 98.368 259.640,98.893 260.000,99.261 260.000 C 99.727 260.000,100.010 260.475,100.194 261.564 C 100.339 262.425,100.805 263.443,101.229 263.826 C 102.210 264.714,102.213 265.451,101.235 265.707 C 100.644 265.861,100.406 266.415,100.191 268.132 C 99.916 270.338,99.901 270.358,98.472 270.478 C 97.347 270.573,96.984 270.802,96.816 271.524 C 96.697 272.032,96.465 272.437,96.300 272.424 C 96.135 272.411,94.200 272.400,92.000 272.400 L 88.000 272.400 88.000 265.400 L 88.000 258.400 92.797 258.400 C 97.160 258.400,97.638 258.472,98.093 259.200 M162.000 259.200 C 162.440 259.640,163.160 260.000,163.600 260.000 C 164.350 260.000,164.400 260.267,164.400 264.254 C 164.400 268.809,163.939 269.858,161.613 270.596 C 161.165 270.738,160.800 271.201,160.800 271.627 C 160.800 272.344,160.482 272.400,156.400 272.400 L 152.000 272.400 152.000 265.400 L 152.000 258.400 156.600 258.400 C 160.667 258.400,161.293 258.493,162.000 259.200 M239.600 259.000 C 239.600 259.330,239.798 259.600,240.040 259.600 C 240.731 259.600,242.800 262.006,242.800 262.810 C 242.800 264.009,243.247 264.798,243.943 264.827 C 244.421 264.847,244.354 264.973,243.700 265.288 C 243.138 265.559,242.800 266.082,242.800 266.679 C 242.800 267.206,242.350 268.086,241.800 268.636 C 241.250 269.186,240.800 269.787,240.800 269.972 C 240.800 270.156,240.440 270.401,240.000 270.516 C 239.521 270.641,239.200 271.062,239.200 271.563 C 239.200 272.361,238.998 272.400,234.843 272.400 C 229.582 272.400,230.000 273.058,230.000 264.767 L 230.000 258.400 234.800 258.400 C 238.800 258.400,239.600 258.500,239.600 259.000 M334.987 259.239 C 334.841 259.701,334.379 260.421,333.961 260.839 C 333.023 261.777,332.878 264.800,333.771 264.800 C 334.085 264.800,334.404 264.485,334.480 264.100 C 334.566 263.669,334.724 263.567,334.893 263.835 C 335.043 264.074,334.881 264.677,334.532 265.176 C 334.083 265.816,333.810 265.940,333.599 265.598 C 333.421 265.311,332.955 265.224,332.450 265.384 C 331.168 265.791,331.122 278.709,332.400 279.507 C 332.910 279.825,333.200 280.440,333.200 281.200 C 333.200 281.960,333.490 282.575,334.000 282.893 C 334.473 283.188,334.800 283.826,334.800 284.453 C 334.800 285.301,336.555 287.264,343.600 294.292 C 352.611 303.283,352.888 303.600,351.722 303.600 C 350.806 303.600,348.800 305.574,348.800 306.475 C 348.800 307.127,348.394 307.200,344.763 307.200 C 341.062 307.200,340.708 307.267,340.516 308.000 C 340.349 308.638,339.970 308.800,338.642 308.800 C 337.446 308.800,336.817 309.021,336.411 309.585 C 336.099 310.017,335.318 310.486,334.674 310.628 C 334.030 310.769,333.418 311.209,333.314 311.605 C 333.211 312.002,332.783 312.416,332.363 312.526 C 331.885 312.651,331.600 313.077,331.600 313.668 C 331.600 314.206,331.171 314.932,330.600 315.361 C 329.751 315.999,329.600 316.436,329.600 318.256 C 329.600 319.435,329.420 320.400,329.200 320.400 C 328.690 320.400,328.667 326.105,329.175 326.620 C 329.381 326.829,329.606 327.810,329.675 328.800 C 329.773 330.216,329.992 330.684,330.700 330.995 C 331.195 331.212,331.600 331.724,331.600 332.132 C 331.600 332.541,331.960 332.969,332.400 333.084 C 332.843 333.200,333.200 333.630,333.200 334.047 C 333.200 334.533,333.483 334.800,334.000 334.800 C 334.533 334.800,334.800 335.067,334.800 335.600 C 334.800 336.187,335.067 336.400,335.800 336.400 C 336.429 336.400,336.800 336.626,336.800 337.010 C 336.800 338.928,352.810 339.060,353.417 337.147 C 353.547 336.736,354.019 336.400,354.464 336.400 C 354.925 336.400,355.361 336.071,355.474 335.637 C 355.584 335.217,356.017 334.784,356.437 334.674 C 357.031 334.519,357.200 334.112,357.200 332.837 C 357.200 331.358,357.296 331.200,358.200 331.200 C 359.000 331.200,359.200 331.000,359.200 330.200 C 359.200 329.612,359.430 329.200,359.757 329.200 C 360.600 329.200,360.800 328.273,360.800 324.367 C 360.800 321.108,360.867 320.800,361.573 320.800 C 361.998 320.800,362.460 320.440,362.600 320.000 C 362.740 319.560,363.108 319.200,363.419 319.200 C 363.730 319.200,364.098 318.750,364.236 318.200 C 364.683 316.416,366.211 316.892,369.054 319.700 L 371.585 322.200 371.592 325.673 C 371.599 328.791,371.682 329.172,372.400 329.400 C 373.021 329.597,373.200 330.005,373.200 331.227 C 373.200 332.533,373.336 332.800,374.000 332.800 C 374.475 332.800,374.800 333.067,374.800 333.457 C 374.800 334.181,376.935 336.400,377.632 336.400 C 377.874 336.400,378.400 336.805,378.801 337.300 C 379.509 338.175,379.735 338.200,387.016 338.200 C 394.336 338.200,394.516 338.180,395.100 337.300 C 395.429 336.805,396.036 336.400,396.449 336.400 C 396.933 336.400,397.200 336.116,397.200 335.600 C 397.200 335.055,397.467 334.800,398.037 334.800 C 398.538 334.800,398.959 334.479,399.084 334.000 C 399.199 333.560,399.452 333.200,399.647 333.200 C 399.842 333.200,400.000 328.644,400.000 323.021 C 400.000 311.620,399.883 311.157,396.855 310.551 C 396.165 310.413,395.600 310.072,395.600 309.793 C 395.600 309.170,394.704 308.800,393.194 308.800 C 392.405 308.800,391.976 308.554,391.800 308.000 C 391.568 307.268,391.195 307.200,387.420 307.200 C 383.630 307.200,383.276 307.135,383.084 306.400 C 382.969 305.960,382.588 305.600,382.237 305.600 C 381.857 305.600,381.600 305.262,381.600 304.763 C 381.600 304.262,381.279 303.841,380.800 303.716 C 380.360 303.601,380.000 303.382,380.000 303.229 C 380.000 303.076,380.360 302.564,380.800 302.092 C 381.240 301.620,381.600 300.956,381.600 300.617 C 381.600 300.274,381.943 300.000,382.373 300.000 C 382.798 300.000,383.260 299.640,383.400 299.200 C 383.540 298.760,383.847 298.400,384.084 298.400 C 384.718 298.400,386.800 296.104,386.800 295.404 C 386.800 295.072,387.148 294.800,387.573 294.800 C 387.998 294.800,388.460 294.440,388.600 294.000 C 388.740 293.560,389.018 293.200,389.218 293.200 C 389.745 293.200,393.820 289.127,394.121 288.300 C 394.260 287.915,394.651 287.600,394.987 287.600 C 395.324 287.600,395.600 287.261,395.600 286.847 C 395.600 286.430,395.957 286.000,396.400 285.884 C 397.004 285.726,397.200 285.338,397.200 284.302 C 397.200 283.225,397.416 282.830,398.200 282.473 C 398.991 282.112,399.200 281.723,399.200 280.609 C 399.200 279.834,399.380 279.200,399.600 279.200 C 399.851 279.200,400.000 276.667,400.000 272.400 C 400.000 268.133,399.851 265.600,399.600 265.600 C 399.380 265.600,399.200 264.816,399.200 263.858 C 399.200 262.616,398.942 261.829,398.300 261.114 C 397.805 260.562,397.201 259.771,396.958 259.355 C 396.168 258.007,389.751 258.031,389.134 259.384 C 388.880 259.943,388.340 260.400,387.936 260.400 C 387.527 260.400,387.200 260.685,387.200 261.042 C 387.200 261.395,386.750 262.219,386.200 262.873 C 385.650 263.527,385.200 264.318,385.200 264.631 C 385.200 264.944,384.974 265.200,384.698 265.200 C 383.532 265.200,380.000 269.567,380.000 271.009 C 380.000 272.339,379.937 272.400,378.563 272.400 C 377.470 272.400,377.076 272.589,376.919 273.187 C 376.806 273.619,376.418 274.075,376.057 274.199 C 375.275 274.467,373.200 277.629,373.200 278.552 C 373.200 278.933,372.871 279.200,372.400 279.200 C 371.882 279.200,371.600 279.467,371.600 279.957 C 371.600 280.430,371.226 280.807,370.600 280.964 C 369.981 281.120,369.600 281.499,369.600 281.961 C 369.600 282.371,369.240 282.801,368.800 282.916 C 368.321 283.041,368.000 283.462,368.000 283.963 C 368.000 284.428,367.742 284.800,367.420 284.800 C 367.101 284.800,366.664 285.114,366.449 285.497 C 366.087 286.145,365.990 286.130,365.104 285.297 C 364.578 284.804,363.964 284.400,363.738 284.400 C 363.280 284.400,362.400 282.678,362.400 281.781 C 362.400 281.462,362.040 281.200,361.600 281.200 C 361.055 281.200,360.800 280.933,360.800 280.363 C 360.800 279.875,360.481 279.442,360.037 279.326 C 359.617 279.216,359.184 278.783,359.074 278.363 C 358.958 277.919,358.525 277.600,358.037 277.600 C 357.473 277.600,357.200 277.345,357.200 276.818 C 357.200 276.388,356.770 275.558,356.245 274.973 C 355.720 274.388,355.000 273.570,354.645 273.155 C 354.290 272.740,353.550 272.400,353.000 272.400 C 352.228 272.400,352.000 272.194,352.000 271.496 C 352.000 270.999,351.640 270.368,351.200 270.093 C 350.690 269.774,350.400 269.160,350.400 268.397 C 350.400 267.491,350.217 267.200,349.647 267.200 C 349.221 267.200,348.799 266.839,348.676 266.370 C 348.557 265.914,348.086 265.443,347.630 265.324 C 347.161 265.201,346.800 264.779,346.800 264.353 C 346.800 263.867,346.517 263.600,346.000 263.600 C 345.560 263.600,345.200 263.338,345.200 263.018 C 345.200 262.698,344.750 261.986,344.200 261.436 C 343.650 260.886,343.200 260.165,343.200 259.832 C 343.200 258.188,335.498 257.632,334.987 259.239 M189.577 267.000 C 189.971 267.440,190.403 268.520,190.535 269.400 C 190.674 270.327,191.136 271.294,191.632 271.700 C 192.462 272.378,192.375 272.400,188.844 272.400 L 185.200 272.400 185.200 270.462 C 185.200 269.032,185.410 268.334,186.000 267.800 C 186.440 267.402,186.800 266.666,186.800 266.165 C 186.800 265.605,187.108 265.156,187.600 265.000 C 188.040 264.860,188.429 264.443,188.464 264.073 C 188.499 263.703,188.603 264.030,188.694 264.800 C 188.785 265.570,189.182 266.560,189.577 267.000 M347.843 268.212 C 347.890 268.535,347.765 268.800,347.565 268.800 C 347.364 268.800,347.200 268.410,347.200 267.933 C 347.200 267.010,347.698 267.225,347.843 268.212 M149.887 270.295 C 149.795 270.903,149.717 270.500,149.714 269.400 C 149.711 268.300,149.787 267.803,149.882 268.295 C 149.977 268.786,149.979 269.686,149.887 270.295 M145.882 272.100 C 145.787 272.595,145.709 272.190,145.709 271.200 C 145.709 270.210,145.787 269.805,145.882 270.300 C 145.978 270.795,145.978 271.605,145.882 272.100 M210.282 274.100 C 210.187 274.595,210.109 274.190,210.109 273.200 C 210.109 272.210,210.187 271.805,210.282 272.300 C 210.378 272.795,210.378 273.605,210.282 274.100 M390.509 275.466 C 390.352 277.049,390.129 277.578,389.552 277.728 C 389.139 277.837,388.800 278.200,388.800 278.536 C 388.800 278.871,388.440 279.260,388.000 279.400 C 387.560 279.540,387.197 279.957,387.193 280.327 C 387.189 280.697,386.739 281.424,386.193 281.942 C 385.647 282.460,385.200 283.225,385.200 283.642 C 385.200 284.139,384.918 284.400,384.382 284.400 C 383.932 284.400,383.140 284.824,382.622 285.342 C 382.104 285.860,381.402 286.390,381.062 286.521 C 380.722 286.651,380.324 287.397,380.178 288.179 C 379.984 289.211,379.704 289.600,379.155 289.600 C 378.616 289.600,378.400 289.886,378.400 290.600 C 378.400 291.478,378.228 291.600,376.987 291.600 C 376.007 291.600,375.496 291.814,375.317 292.300 C 375.176 292.685,374.641 293.396,374.130 293.881 C 373.618 294.365,373.200 295.220,373.200 295.781 C 373.200 296.588,373.002 296.800,372.248 296.800 C 370.039 296.800,367.919 299.758,368.067 302.632 C 368.206 305.314,367.725 305.922,366.430 304.700 C 366.006 304.300,365.863 304.300,365.717 304.700 C 365.616 304.975,364.899 305.200,364.124 305.200 C 362.934 305.200,362.761 305.091,363.014 304.500 C 363.570 303.200,363.680 301.696,363.238 301.424 C 362.997 301.275,362.800 300.659,362.800 300.056 C 362.800 299.453,362.584 298.744,362.320 298.480 C 361.567 297.727,362.476 297.923,363.800 298.800 C 365.201 299.728,367.020 299.847,367.333 299.031 C 367.453 298.718,367.967 298.403,368.476 298.331 C 369.078 298.246,369.444 297.887,369.528 297.300 C 369.610 296.722,369.932 296.400,370.428 296.400 C 370.933 296.400,371.200 296.124,371.200 295.600 C 371.200 295.076,371.467 294.800,371.973 294.800 C 372.398 294.800,372.860 294.440,373.000 294.000 C 373.140 293.559,373.602 293.013,374.027 292.786 C 374.452 292.558,374.800 292.151,374.800 291.882 C 374.800 291.613,375.160 291.168,375.600 290.893 C 376.110 290.574,376.400 289.960,376.400 289.197 C 376.400 288.367,376.596 288.000,377.040 288.000 C 377.391 288.000,378.192 287.505,378.819 286.900 C 379.446 286.295,380.329 285.485,380.780 285.100 C 381.231 284.715,381.600 283.950,381.600 283.400 C 381.600 282.752,381.824 282.400,382.237 282.400 C 382.588 282.400,382.969 282.040,383.084 281.600 C 383.199 281.160,383.620 280.800,384.020 280.800 C 384.419 280.800,384.857 280.449,384.994 280.020 C 385.130 279.592,385.592 279.130,386.020 278.994 C 386.449 278.857,386.800 278.419,386.800 278.020 C 386.800 277.620,387.148 277.202,387.574 277.091 C 388.082 276.958,388.440 276.395,388.618 275.444 C 388.816 274.391,389.093 274.000,389.645 274.000 C 390.060 274.000,390.400 273.790,390.400 273.533 C 390.400 273.277,390.470 273.142,390.556 273.233 C 390.642 273.325,390.621 274.330,390.509 275.466 M342.905 275.466 C 343.210 275.650,343.576 276.115,343.718 276.500 C 343.859 276.885,344.247 277.200,344.580 277.200 C 344.913 277.200,345.298 277.650,345.436 278.200 C 345.593 278.826,345.970 279.200,346.443 279.200 C 346.933 279.200,347.200 279.482,347.200 280.000 C 347.200 280.533,347.467 280.800,348.000 280.800 C 348.591 280.800,348.800 281.067,348.800 281.819 C 348.800 282.392,349.238 283.244,349.800 283.765 C 350.350 284.275,350.800 284.884,350.800 285.119 C 350.800 285.354,351.178 285.666,351.639 285.813 C 352.101 285.959,352.803 286.403,353.200 286.800 C 353.597 287.197,354.041 287.899,354.187 288.361 C 354.334 288.822,354.609 289.200,354.798 289.200 C 355.127 289.200,356.512 291.623,356.302 291.830 C 355.848 292.274,354.025 291.376,353.922 290.658 C 353.846 290.121,353.463 289.752,352.900 289.672 C 352.322 289.590,352.000 289.268,352.000 288.772 C 352.000 288.267,351.724 288.000,351.200 288.000 C 350.619 288.000,350.400 287.733,350.400 287.027 C 350.400 286.421,350.112 285.963,349.637 285.812 C 349.217 285.679,348.773 285.306,348.650 284.985 C 348.526 284.663,348.059 284.400,347.613 284.400 C 347.067 284.400,346.800 284.137,346.800 283.600 C 346.800 283.067,346.533 282.800,346.000 282.800 C 345.474 282.800,345.200 282.533,345.200 282.023 C 345.200 281.595,344.853 281.002,344.428 280.705 C 344.004 280.407,343.528 279.654,343.372 279.030 C 343.215 278.406,342.752 277.808,342.344 277.701 C 341.736 277.542,341.605 277.131,341.625 275.453 C 341.645 273.873,341.731 273.600,342.000 274.266 C 342.192 274.742,342.599 275.282,342.905 275.466 M85.476 279.900 C 85.375 280.285,85.293 279.970,85.293 279.200 C 85.293 278.430,85.375 278.115,85.476 278.500 C 85.576 278.885,85.576 279.515,85.476 279.900 M149.876 279.900 C 149.775 280.285,149.693 279.970,149.693 279.200 C 149.693 278.430,149.775 278.115,149.876 278.500 C 149.976 278.885,149.976 279.515,149.876 279.900 M0.000 290.382 L 0.000 301.600 3.006 301.600 L 6.013 301.600 5.906 290.500 L 5.800 279.400 2.900 279.282 L 0.000 279.165 0.000 290.382 M118.800 282.649 C 118.800 283.892,118.715 284.027,118.200 283.600 C 117.469 282.993,117.444 282.543,118.100 281.798 C 118.792 281.012,118.800 281.022,118.800 282.649 M198.762 282.900 C 199.223 283.502,199.203 283.600,198.625 283.600 C 198.255 283.600,198.064 283.420,198.200 283.200 C 198.336 282.980,198.246 282.800,198.000 282.800 C 197.754 282.800,197.671 282.608,197.816 282.373 C 197.961 282.139,198.113 282.004,198.153 282.073 C 198.193 282.143,198.467 282.515,198.762 282.900 M247.289 283.977 C 247.151 284.916,247.011 285.057,246.595 284.677 C 246.170 284.287,246.189 284.072,246.699 283.500 C 247.502 282.601,247.492 282.593,247.289 283.977 M123.967 284.947 C 123.590 285.279,120.032 285.472,120.231 285.150 C 120.350 284.958,121.277 284.800,122.290 284.800 C 123.304 284.800,124.058 284.866,123.967 284.947 M132.713 285.093 C 131.676 285.176,129.876 285.176,128.713 285.095 C 127.551 285.014,128.400 284.947,130.600 284.946 C 132.800 284.945,133.751 285.011,132.713 285.093 M136.655 285.400 C 136.529 285.730,136.599 286.000,136.813 286.000 C 137.026 286.000,137.200 285.790,137.200 285.533 C 137.200 285.277,137.306 285.173,137.437 285.303 C 137.567 285.433,137.506 285.840,137.301 286.206 C 136.955 286.823,136.878 286.821,136.235 286.177 C 135.678 285.620,135.645 285.418,136.070 285.148 C 136.818 284.674,136.917 284.717,136.655 285.400 M358.463 293.037 C 358.828 293.167,359.216 293.617,359.326 294.037 C 359.435 294.457,359.812 294.800,360.163 294.800 C 360.513 294.800,360.800 295.055,360.800 295.367 C 360.800 295.679,360.900 296.196,361.023 296.516 C 361.192 296.956,361.002 297.051,360.245 296.907 C 359.605 296.784,359.200 296.406,359.122 295.858 C 359.046 295.321,358.663 294.952,358.100 294.872 C 357.605 294.802,357.200 294.502,357.200 294.205 C 357.200 293.908,357.081 293.356,356.936 292.978 C 356.746 292.481,356.829 292.361,357.236 292.545 C 357.546 292.685,358.098 292.906,358.463 293.037 M361.600 301.600 C 361.600 301.820,361.915 302.014,362.300 302.032 C 362.858 302.057,362.878 302.110,362.400 302.292 C 362.070 302.417,361.648 302.718,361.462 302.960 C 361.251 303.235,361.202 303.156,361.331 302.749 C 361.445 302.391,361.336 301.896,361.089 301.649 C 360.757 301.317,360.765 301.200,361.120 301.200 C 361.384 301.200,361.600 301.380,361.600 301.600 M0.000 316.618 L 0.000 328.035 2.900 327.918 L 5.800 327.800 5.907 316.828 C 6.027 304.383,6.271 305.215,2.500 305.206 L 0.000 305.200 0.000 316.618 M371.546 307.900 C 371.501 308.806,371.461 308.845,371.321 308.125 C 371.223 307.619,370.781 307.177,370.275 307.079 C 369.555 306.939,369.594 306.899,370.500 306.854 C 371.458 306.807,371.593 306.942,371.546 307.900 M348.670 318.717 C 350.039 319.933,350.357 320.488,350.440 321.800 C 350.649 325.136,350.443 326.296,349.600 326.516 C 349.160 326.631,348.800 327.012,348.800 327.363 C 348.800 327.713,348.558 328.000,348.262 328.000 C 347.966 328.000,347.398 328.360,347.000 328.800 C 346.544 329.304,345.768 329.600,344.901 329.600 C 344.132 329.600,343.078 329.248,342.509 328.800 C 341.950 328.360,341.156 328.000,340.746 328.000 C 340.268 328.000,340.000 327.714,340.000 327.203 C 340.000 326.765,339.640 326.182,339.200 325.907 C 338.187 325.275,337.988 320.800,338.973 320.800 C 339.288 320.800,339.660 320.440,339.800 320.000 C 339.940 319.560,340.280 319.200,340.557 319.200 C 340.834 319.200,341.483 318.750,342.000 318.200 C 343.541 316.560,346.499 316.789,348.670 318.717 M390.161 318.200 C 390.574 318.750,391.247 319.200,391.656 319.200 C 392.336 319.200,392.400 319.576,392.400 323.555 L 392.400 327.909 390.633 328.174 C 389.661 328.320,388.649 328.700,388.384 329.020 C 387.731 329.806,386.863 329.750,385.000 328.800 C 384.137 328.360,383.019 328.000,382.515 328.000 C 381.617 328.000,381.600 327.918,381.600 323.600 C 381.600 320.308,381.728 319.200,382.108 319.200 C 382.388 319.200,383.063 318.761,383.608 318.224 C 385.089 316.767,389.074 316.752,390.161 318.200 M0.000 342.400 L 0.000 353.200 1.700 353.260 L 3.400 353.320 1.600 353.600 C 0.007 353.848,0.156 353.887,2.900 353.940 L 6.000 354.000 6.000 342.800 L 6.000 331.600 3.000 331.600 L 0.000 331.600 0.000 342.400 M362.800 342.800 L 362.800 354.000 366.200 354.000 L 369.600 354.000 369.600 342.800 L 369.600 331.600 366.200 331.600 L 362.800 331.600 362.800 342.800 M0.000 368.818 L 0.000 380.035 2.900 379.918 L 5.800 379.800 5.906 368.700 L 6.013 357.600 3.006 357.600 L 0.000 357.600 0.000 368.818 M362.800 368.800 L 362.800 380.000 366.200 380.000 L 369.600 380.000 369.600 368.800 L 369.600 357.600 366.200 357.600 L 362.800 357.600 362.800 368.800 M1.400 384.000 L 3.000 384.286 1.500 384.343 L 0.000 384.400 0.000 392.200 L 0.000 400.000 3.000 400.000 L 6.000 400.000 6.000 391.800 L 6.000 383.600 2.900 383.657 C 0.323 383.704,0.070 383.762,1.400 384.000 M362.800 391.814 L 362.800 400.000 366.200 400.000 L 369.600 400.000 369.600 391.826 L 369.600 383.652 366.200 383.640 L 362.800 383.627 362.800 391.814 " stroke="none" fill="#ffffff" fill-rule="evenodd"></path><path id="path1" d="" stroke="none" fill="#100fcfc" fill-rule="evenodd"></path></g></svg>