<?xml version="1.0" encoding="iso-8859-1"?><!DOCTYPE svg PUBLIC "-//W3C//DTD SVG 1.1//EN" "http://www.w3.org/Graphics/SVG/1.1/DTD/svg11.dtd"><svg xmlns="http://www.w3.org/2000/svg" xmlns:xlink="http://www.w3.org/1999/xlink"><symbol viewBox="0 0 60 60" id="calc" xmlns="http://www.w3.org/2000/svg"><path d="M50.586 0H9.414A2.918 2.918 0 0 0 6.5 2.914v54.172A2.918 2.918 0 0 0 9.414 60h41.172a2.918 2.918 0 0 0 2.914-2.914V2.914A2.918 2.918 0 0 0 50.586 0zm.914 57.086c0 .504-.41.914-.914.914H9.414a.915.915 0 0 1-.914-.914V2.914c0-.504.41-.914.914-.914h41.172c.504 0 .914.41.914.914v54.172z"/><path d="M11.5 55h11V44h-11v11zm2-9h7v7h-7v-7zM24.5 55h11V44h-11v11zm2-9h7v7h-7v-7zM37.5 55h11V31h-11v24zm2-22h7v20h-7V33zM11.5 42h11V31h-11v11zm2-9h7v7h-7v-7zM24.5 42h11V31h-11v11zm2-9h7v7h-7v-7zM11.5 29h11V18h-11v11zm2-9h7v7h-7v-7zM24.5 29h11V18h-11v11zm2-9h7v7h-7v-7zM37.5 29h11V18h-11v11zm2-9h7v7h-7v-7zM11.5 15h37V5h-37v10zm2-8h33v6h-33V7z"/></symbol><symbol viewBox="0 -38 512 512" id="diploma" xmlns="http://www.w3.org/2000/svg"><path d="M512 0H0v372.168h314.973v64.59l55.98-27.344 55.98 27.344v-64.59H512zM370.953 312.145c-28.125 0-51-22.88-51-51 0-28.122 22.875-51 51-51 28.121 0 51 22.878 51 51 0 28.12-22.879 51-51 51zm0 63.882l-25.98 12.688v-50.871a80.604 80.604 0 0 0 51.96 0v50.87zM482 342.168h-55.066v-22.566c15.398-14.754 25.02-35.497 25.02-58.457 0-44.665-36.337-81-81-81s-81 36.335-81 81c0 22.96 9.616 43.707 25.019 58.457v22.566H30V30h452zm0 0"/><path d="M60.035 120.094h391.93v30H60.035zm0 0M105.07 60.047h301.86v30H105.07zm0 0M60.035 282.121h145.926v30H60.035zm0 0M60.035 222.07h145.926v30H60.035zm0 0"/></symbol><symbol viewBox="0 0 512 512" id="gear" xmlns="http://www.w3.org/2000/svg"><path d="M443.481 132.157l24.65-24.65-63.639-63.639-24.65 24.65C355.909 52.685 329.054 41.536 301 35.791V0h-90v35.791c-28.054 5.746-54.91 16.894-78.843 32.728l-24.65-24.65-63.638 63.638 24.65 24.65C52.685 156.09 41.536 182.946 35.791 211H0v90h35.79c5.746 28.055 16.894 54.911 32.727 78.843l-24.648 24.648 63.638 63.641 24.651-24.65c23.933 15.834 50.789 26.982 78.843 32.728V512h90v-35.791c28.054-5.746 54.909-16.894 78.843-32.728l24.65 24.65 63.639-63.641-24.648-24.648c15.833-23.931 26.979-50.787 32.727-78.843H512v-90h-35.79c-5.746-28.054-16.895-54.91-32.729-78.842zM482 271h-31.389l-1.853 12.861c-8.549 59.324-41.171 93.32-44.605 99.079l21.553 21.552-21.213 21.213-21.553-21.553c-5.739 3.423-39.854 36.074-99.079 44.606L271 450.611V482h-30v-31.389l-12.861-1.853c-59.316-8.545-93.321-41.172-99.078-44.606l-21.553 21.553-21.213-21.214 21.552-21.552c-3.433-5.755-36.072-39.846-44.605-99.078L61.389 271H30v-30h31.389l1.853-12.861c8.545-59.316 41.172-93.321 44.606-99.078l-21.553-21.554 21.212-21.212 21.554 21.553c5.754-3.432 39.851-36.074 99.078-44.606L241 61.389V30h30v31.389l12.861 1.853c59.314 8.545 93.322 41.172 99.079 44.606l21.553-21.553 21.213 21.212-21.555 21.554c3.433 5.755 36.073 39.847 44.607 99.079l1.853 12.86H482v30z"/><path d="M271 136h-30v45h-30v90h60v30h-60v30h30v45h30v-45h30v-90h-60v-30h60v-30h-30z"/><path d="M256 91c-90.981 0-165 74.019-165 165s74.019 165 165 165 165-74.019 165-165S346.981 91 256 91zm0 300c-74.439 0-135-60.561-135-135s60.561-135 135-135 135 60.561 135 135-60.561 135-135 135z"/><path d="M151 241h30v30h-30zM331 241h30v30h-30z"/></symbol><symbol viewBox="0 0 24 24" id="menu" xmlns="http://www.w3.org/2000/svg"><path d="M0 0h24v24H0z" fill="none"/><path d="M3 18h18v-2H3v2zm0-5h18v-2H3v2zm0-7v2h18V6H3z"/></symbol><symbol viewBox="0 0 512 512" id="quot" xmlns="http://www.w3.org/2000/svg"><path d="M125.887 235.044c4.497-34.094 34.635-64.954 89.763-91.846l9.927-4.843-40.699-75.14-9.188 4.657C59.111 126.967 0 210.482 0 316.1c0 36.442 11.568 67.916 34.385 93.55 23.137 25.991 51.215 39.17 83.46 39.17 28.973 0 53.541-10.317 73.021-30.668 19.353-20.22 29.166-45.335 29.166-74.649 0-27.7-9.912-52.386-29.461-73.372-17.242-18.511-38.968-30.286-64.684-35.087zm49.683 168.467c-15.546 16.241-34.428 24.135-57.725 24.135-26.305 0-48.431-10.492-67.642-32.075-19.534-21.944-29.03-47.939-29.03-79.472 0-48.407 13.631-92.11 40.512-129.893 25.649-36.049 64.119-67.876 114.44-94.7l20.389 37.642c-61.32 32.134-92.389 70.762-92.389 114.924v9.456l9.395 1.064c25.308 2.865 45.441 12.668 61.558 29.97 16.001 17.178 23.78 36.459 23.78 58.94.001 24.008-7.618 43.636-23.288 60.009zM413.206 235.075c4.443-34.122 34.333-64.998 89.019-91.893l9.775-4.807-39.688-75.194-9.279 4.682C345.921 126.955 286.541 210.474 286.541 316.1c0 36.465 11.716 67.956 34.821 93.597 23.393 25.959 51.587 39.122 83.806 39.122 29.009 0 53.464-10.337 72.685-30.725 19.056-20.212 28.719-45.308 28.719-74.592 0-27.701-9.912-52.387-29.459-73.372-17.207-18.471-38.671-30.236-63.907-35.055zm49.243 168.494c-15.277 16.202-34.012 24.078-57.281 24.078-26.331 0-48.599-10.507-68.077-32.123-19.769-21.938-29.378-47.917-29.378-79.424 0-48.399 13.693-92.095 40.693-129.874 25.763-36.041 64.399-67.863 114.934-94.684l19.836 37.584c-60.878 32.145-91.725 70.781-91.725 114.947v9.435l9.371 1.082c24.788 2.861 44.674 12.665 60.799 29.973 16.001 17.177 23.778 36.456 23.778 58.94.001 24.038-7.507 43.687-22.95 60.066z"/></symbol><symbol viewBox="0 0 351.128 351.128" id="quote" xmlns="http://www.w3.org/2000/svg"><path d="M72.326 147.33c4.284-26.928 37.944-55.692 64.26-56.304 1.836 0 3.672-.612 4.896-1.836 1.224-.612 2.448-1.224 3.06-3.06 9.18-17.136 4.284-30.6-11.016-41.616-17.748-12.852-45.9 0-59.976 11.628-35.496 29.376-71.604 80.171-69.768 128.52-6.12 32.437-4.896 67.32 4.284 96.084 6.12 18.36 23.868 27.54 42.228 28.764 18.36 1.225 56.304 6.732 72.828-4.283 16.524-11.017 17.748-32.437 19.584-50.796 1.836-20.196 7.344-58.141-9.792-74.053-17.136-15.3-66.096 1.224-60.588-33.048zM274.286 147.33c4.284-26.928 37.943-55.692 64.26-56.304 1.836 0 3.672-.612 4.896-1.836 1.225-.612 2.448-1.224 3.061-3.06 9.18-17.136 4.284-30.6-11.016-41.616-17.748-12.852-45.9 0-59.977 11.628-35.496 29.376-71.604 80.172-69.768 128.52-6.12 32.437-4.896 67.32 4.283 96.084 6.12 18.36 23.868 27.54 42.229 28.764 18.36 1.225 56.304 6.732 72.828-4.283 16.523-11.017 17.748-32.437 19.584-50.796 1.836-20.196 7.344-58.141-9.792-74.053-17.136-15.3-66.708 1.224-60.588-33.048z"/></symbol></svg>