<?xml version="1.0" encoding="iso-8859-1"?><svg xmlns="http://www.w3.org/2000/svg" xmlns:xlink="http://www.w3.org/1999/xlink"><symbol viewBox="0 0 60 60" id="calc" xmlns="http://www.w3.org/2000/svg"><path d="M50.586 0H9.414A2.918 2.918 0 0 0 6.5 2.914v54.172A2.918 2.918 0 0 0 9.414 60h41.172a2.918 2.918 0 0 0 2.914-2.914V2.914A2.918 2.918 0 0 0 50.586 0zm.914 57.086c0 .504-.41.914-.914.914H9.414a.915.915 0 0 1-.914-.914V2.914c0-.504.41-.914.914-.914h41.172c.504 0 .914.41.914.914v54.172z"/><path d="M11.5 55h11V44h-11v11zm2-9h7v7h-7v-7zM24.5 55h11V44h-11v11zm2-9h7v7h-7v-7zM37.5 55h11V31h-11v24zm2-22h7v20h-7V33zM11.5 42h11V31h-11v11zm2-9h7v7h-7v-7zM24.5 42h11V31h-11v11zm2-9h7v7h-7v-7zM11.5 29h11V18h-11v11zm2-9h7v7h-7v-7zM24.5 29h11V18h-11v11zm2-9h7v7h-7v-7zM37.5 29h11V18h-11v11zm2-9h7v7h-7v-7zM11.5 15h37V5h-37v10zm2-8h33v6h-33V7z"/></symbol><symbol viewBox="0 -38 512 512" id="diploma" xmlns="http://www.w3.org/2000/svg"><path d="M512 0H0v372.168h314.973v64.59l55.98-27.344 55.98 27.344v-64.59H512zM370.953 312.145c-28.125 0-51-22.88-51-51 0-28.122 22.875-51 51-51 28.121 0 51 22.878 51 51 0 28.12-22.879 51-51 51zm0 63.882l-25.98 12.688v-50.871a80.604 80.604 0 0 0 51.96 0v50.87zM482 342.168h-55.066v-22.566c15.398-14.754 25.02-35.497 25.02-58.457 0-44.665-36.337-81-81-81s-81 36.335-81 81c0 22.96 9.616 43.707 25.019 58.457v22.566H30V30h452zm0 0"/><path d="M60.035 120.094h391.93v30H60.035zm0 0M105.07 60.047h301.86v30H105.07zm0 0M60.035 282.121h145.926v30H60.035zm0 0M60.035 222.07h145.926v30H60.035zm0 0"/></symbol><symbol viewBox="0 0 512 512" id="gear" xmlns="http://www.w3.org/2000/svg"><path d="M443.481 132.157l24.65-24.65-63.639-63.639-24.65 24.65C355.909 52.685 329.054 41.536 301 35.791V0h-90v35.791c-28.054 5.746-54.91 16.894-78.843 32.728l-24.65-24.65-63.638 63.638 24.65 24.65C52.685 156.09 41.536 182.946 35.791 211H0v90h35.79c5.746 28.055 16.894 54.911 32.727 78.843l-24.648 24.648 63.638 63.641 24.651-24.65c23.933 15.834 50.789 26.982 78.843 32.728V512h90v-35.791c28.054-5.746 54.909-16.894 78.843-32.728l24.65 24.65 63.639-63.641-24.648-24.648c15.833-23.931 26.979-50.787 32.727-78.843H512v-90h-35.79c-5.746-28.054-16.895-54.91-32.729-78.842zM482 271h-31.389l-1.853 12.861c-8.549 59.324-41.171 93.32-44.605 99.079l21.553 21.552-21.213 21.213-21.553-21.553c-5.739 3.423-39.854 36.074-99.079 44.606L271 450.611V482h-30v-31.389l-12.861-1.853c-59.316-8.545-93.321-41.172-99.078-44.606l-21.553 21.553-21.213-21.214 21.552-21.552c-3.433-5.755-36.072-39.846-44.605-99.078L61.389 271H30v-30h31.389l1.853-12.861c8.545-59.316 41.172-93.321 44.606-99.078l-21.553-21.554 21.212-21.212 21.554 21.553c5.754-3.432 39.851-36.074 99.078-44.606L241 61.389V30h30v31.389l12.861 1.853c59.314 8.545 93.322 41.172 99.079 44.606l21.553-21.553 21.213 21.212-21.555 21.554c3.433 5.755 36.073 39.847 44.607 99.079l1.853 12.86H482v30z"/><path d="M271 136h-30v45h-30v90h60v30h-60v30h30v45h30v-45h30v-90h-60v-30h60v-30h-30z"/><path d="M256 91c-90.981 0-165 74.019-165 165s74.019 165 165 165 165-74.019 165-165S346.981 91 256 91zm0 300c-74.439 0-135-60.561-135-135s60.561-135 135-135 135 60.561 135 135-60.561 135-135 135z"/><path d="M151 241h30v30h-30zM331 241h30v30h-30z"/></symbol><symbol viewBox="0 0 24 24" id="menu" xmlns="http://www.w3.org/2000/svg"><path d="M0 0h24v24H0z" fill="none"/><path d="M3 18h18v-2H3v2zm0-5h18v-2H3v2zm0-7v2h18V6H3z"/></symbol></svg>